<?xml version="1.0" standalone="no"?>
<!DOCTYPE svg PUBLIC "-//W3C//DTD SVG 1.1//EN" "http://www.w3.org/Graphics/SVG/1.1/DTD/svg11.dtd" >
<svg xmlns="http://www.w3.org/2000/svg" xmlns:xlink="http://www.w3.org/1999/xlink" version="1.1">
<metadata>
Created by FontForge 20200314 at Mon Feb 12 12:23:17 1996
 By www-data
Copyright (c) 1990 Adobe Systems Incorporated.  All Rights Reserved.Helvetica is a trademark of Linotype AG and/or its subsidiaries.
</metadata>
<defs>
<font id="HelveticaNeueLT-LightExtObl" horiz-adv-x="668" >
  <font-face 
    font-family="HelveticaNeue LT 43 LightEx"
    font-weight="400"
    font-style="italic"
    font-stretch="normal"
    units-per-em="1000"
    panose-1="2 0 4 0 0 0 0 0 0 0"
    ascent="800"
    descent="-200"
    x-height="520"
    cap-height="714"
    bbox="-163 -220 1283 953"
    underline-thickness="50"
    underline-position="-125"
    slope="-11"
    unicode-range="U+0020-2122"
  />
<missing-glyph horiz-adv-x="500" 
d="M63 0v778h375v-778h-375zM125 63h250v653h-250v-653z" />
    <glyph glyph-name=".notdef" horiz-adv-x="500" 
d="M63 0v778h375v-778h-375zM125 63h250v653h-250v-653z" />
    <glyph glyph-name=".null" horiz-adv-x="0" 
 />
    <glyph glyph-name="nonmarkingreturn" horiz-adv-x="278" 
 />
    <glyph glyph-name="space" unicode=" " horiz-adv-x="278" 
 />
    <glyph glyph-name="exclam" unicode="!" horiz-adv-x="296" 
d="M105 0l23 110h86l-23 -110h-86zM165 185l55 340l40 189h80l-40 -189l-91 -340h-44z" />
    <glyph glyph-name="quotedbl" unicode="&#x22;" horiz-adv-x="407" 
d="M200 464l53 250h56l-53 -250h-56zM349 464l53 250h56l-53 -250h-56z" />
    <glyph glyph-name="numbersign" unicode="#" 
d="M164 0l80 226h-114l9 44h120l55 154h-114l9 44h120l81 226h50l-81 -226h142l81 226h50l-81 -226h114l-9 -44h-120l-55 -154h114l-9 -44h-120l-80 -226h-50l80 226h-142l-80 -226h-50zM451 270l55 154h-142l-55 -154h142z" />
    <glyph glyph-name="dollar" unicode="$" 
d="M391 396l52 244q-184 -7 -209 -123q-2 -11 -2 -21q0 -43 47 -68q36 -19 112 -32zM430 317l-56 -265q202 2 231 134q2 12 2 22q0 86 -177 109zM318 52l58 273q-110 18 -157 42q-71 36 -71 106q0 17 4 37q22 100 114 152q78 43 191 46l13 61h56l-13 -61q220 -12 220 -170
q0 -20 -4 -43h-74q2 12 2 23q0 111 -158 122l-54 -255q130 -18 188 -53.5t58 -96.5q0 -17 -4 -36q-24 -113 -126 -168q-83 -45 -201 -47l-21 -97h-56l21 97q-239 12 -239 181q0 30 7 64h74q-5 -24 -5 -45q0 -121 177 -132z" />
    <glyph glyph-name="percent" unicode="%" horiz-adv-x="963" 
d="M733 34q53 0 91 38t53 106q5 26 5 49q0 95 -88 95q-53 0 -91 -38t-52 -106q-6 -26 -6 -49q0 -95 88 -95zM210 -16l629 724h59l-629 -724h-59zM316 370q53 0 91 38t52 106q6 26 6 49q0 95 -88 95q-53 0 -91 -38t-53 -106q-5 -26 -5 -49q0 -95 88 -95zM723 -16
q-65 0 -103 35.5t-38 101.5q0 26 7 57q20 93 81 145q57 49 135 49q65 0 102.5 -35.5t37.5 -101.5q0 -26 -6 -57q-20 -93 -79.5 -143.5t-136.5 -50.5zM305 320q-65 0 -102.5 35.5t-37.5 101.5q0 26 6 57q20 93 81 145q58 49 135 49q65 0 103 -35.5t38 -101.5q0 -26 -7 -57
q-20 -93 -81 -145q-57 -49 -135 -49z" />
    <glyph glyph-name="ampersand" unicode="&#x26;" horiz-adv-x="778" 
d="M586 132l-197 234q-179 -62 -203 -173q-3 -14 -3 -28q0 -52 40 -83q46 -36 132 -36q129 0 231 86zM698 0l-74 89q-49 -48 -125.5 -76.5t-160.5 -28.5q-114 0 -174 46q-56 44 -56 120q0 22 5 47q15 73 73 122q54 46 170 90q-60 71 -60 124q0 16 3 33q14 66 70.5 107
t135.5 41q76 0 114 -36q32 -29 32 -78q0 -15 -3 -31q-24 -111 -186 -173l175 -207q39 39 64 120h68q-18 -82 -92 -165l122 -144h-101zM581 584q0 68 -95 68q-46 0 -83 -29t-37 -74q0 -38 60 -114q155 61 155 149z" />
    <glyph glyph-name="quotesingle" unicode="'" horiz-adv-x="278" 
d="M210 464l53 250h56l-53 -250h-56z" />
    <glyph glyph-name="parenleft" unicode="(" horiz-adv-x="352" 
d="M414 714h56q-95 -102 -143 -175q-84 -130 -115 -277q-17 -76 -17 -147q0 -140 83 -305h-56q-98 144 -98 326q0 63 14 126q34 163 155 320q56 73 121 132z" />
    <glyph glyph-name="parenright" unicode=")" horiz-adv-x="352" 
d="M50 -190h-56q94 102 142 175q84 130 116 277q16 76 16 147q0 140 -82 305h56q97 -144 97 -326q0 -63 -13 -126q-35 -163 -155 -320q-56 -73 -121 -132z" />
    <glyph glyph-name="asterisk" unicode="*" horiz-adv-x="426" 
d="M308 580l29 134h56l-29 -134l137 48l10 -49l-143 -50l71 -103l-46 -36l-74 109l-120 -109l-30 36l113 103l-121 50l30 49z" />
    <glyph glyph-name="plus" unicode="+" horiz-adv-x="600" 
d="M275 0l48 228h-228l11 50h228l49 228h50l-49 -228h228l-11 -50h-228l-48 -228h-50z" />
    <glyph glyph-name="comma" unicode="," horiz-adv-x="278" 
d="M96 0l23 110h86l-23 -112q-24 -112 -125 -138l8 38q31 12 46 39q12 20 21 63h-36z" />
    <glyph glyph-name="hyphenminus" unicode="-" horiz-adv-x="444" 
d="M120 237l16 74h304l-16 -74h-304z" />
    <glyph glyph-name="period" unicode="." horiz-adv-x="278" 
d="M96 0l23 110h86l-23 -110h-86z" />
    <glyph glyph-name="slash" unicode="/" horiz-adv-x="407" 
d="M0 -18l503 750h56l-503 -750h-56z" />
    <glyph glyph-name="zero" unicode="0" 
d="M471 646q-218 0 -282 -301q-14 -69 -14 -121q0 -178 169 -178q218 0 281 299q15 70 15 123q0 178 -169 178zM484 708q230 0 230 -236q0 -57 -15 -127q-38 -181 -140 -275q-93 -86 -228 -86q-109 0 -168 57q-62 60 -62 178q0 57 14 126q39 183 141 276q93 87 228 87z" />
    <glyph glyph-name="one" unicode="1" horiz-adv-x="444" 
d="M236 0l111 520h-216l11 56h49q92 0 130 22q45 26 77 110h62l-150 -708h-74z" />
    <glyph glyph-name="two" unicode="2" 
d="M608 68l-14 -68h-542q25 77 74 128q72 76 231 151q141 67 189 104q57 45 71 112q5 22 5 40q0 111 -150 111q-190 0 -234 -189h-74q53 251 322 251q111 0 165 -50q45 -43 45 -114q0 -24 -5 -50q-18 -82 -79 -138q-44 -39 -142 -87q-170 -83 -226 -119q-64 -40 -86 -82h450
z" />
    <glyph glyph-name="three" unicode="3" 
d="M353 336l14 62h48q87 0 134 24q53 28 67 94q3 16 3 31q0 99 -144 99q-196 0 -232 -171h-74q24 102 101 164q86 69 218 69q89 0 144 -34q63 -39 63 -114q0 -21 -5 -44q-11 -52 -52 -91q-46 -44 -109 -51v-2q56 -5 90.5 -39.5t34.5 -92.5q0 -21 -5 -44q-24 -111 -117 -165
q-82 -47 -206 -47q-235 0 -235 177q0 30 7 64h74q-5 -25 -5 -47q0 -132 183 -132q96 0 159 45q70 51 70 142q0 103 -166 103h-60z" />
    <glyph glyph-name="four" unicode="4" 
d="M468 236l78 368h-2l-378 -368h302zM418 0l37 174h-376l14 68l478 466h65l-100 -472h132l-13 -62h-132l-37 -174h-68z" />
    <glyph glyph-name="five" unicode="5" 
d="M141 326l148 366h417l-13 -62h-361l-98 -229l2 -2q84 68 195 68q110 0 168.5 -48.5t58.5 -133.5q0 -28 -7 -59q-20 -94 -90 -159q-90 -83 -238 -83q-233 0 -233 187q0 13 1 28h74q-6 -153 171 -153q90 0 153 43q69 48 88 137q5 24 5 46q0 133 -175 133q-115 0 -197 -82z
" />
    <glyph glyph-name="six" unicode="6" 
d="M707 528h-74q1 8 1 16q0 102 -155 102q-106 0 -174 -70q-71 -74 -110 -239l1 -2q96 129 245 129q106 0 166 -47t60 -134q0 -28 -7 -60q-24 -114 -117 -179q-87 -60 -204 -60q-230 0 -230 216q0 54 14 122q39 181 128 280q96 106 241 106q113 0 168 -48q49 -41 49 -110
q0 -11 -2 -22zM189 226q-4 -20 -4 -39q0 -61 38 -98q43 -43 129 -43q85 0 151 48.5t84 129.5q4 21 4 40q0 62 -43 100t-121 38q-109 0 -174 -63q-50 -46 -64 -113z" />
    <glyph glyph-name="seven" unicode="7" horiz-adv-x="593" 
d="M699 692l-14 -68q-104 -78 -220 -222q-156 -196 -230 -402h-80q54 163 201 355q132 173 258 269h-454l14 68h525z" />
    <glyph glyph-name="eight" unicode="8" 
d="M163 193q-4 -17 -4 -32q0 -115 185 -115q96 0 159 35q68 38 84 112q4 17 4 33q0 59 -53 91q-48 29 -130 29q-94 0 -158 -37q-71 -40 -87 -116zM89 193q31 146 206 185l1 2q-106 30 -106 114q0 106 99 165q82 49 195 49q218 0 218 -144q0 -18 -4 -37q-24 -111 -164 -147
l-1 -2q133 -33 133 -141q0 -125 -109 -194q-93 -59 -226 -59q-132 0 -195 51q-52 42 -52 114q0 21 5 44zM421 408q87 0 141 33q50 30 61 82q3 15 3 28q0 95 -155 95q-178 0 -204 -123q-2 -11 -2 -22q0 -93 156 -93z" />
    <glyph glyph-name="nine" unicode="9" 
d="M108 164h74q-1 -8 -1 -16q0 -102 155 -102q106 0 174 70q71 74 110 239l-1 2q-96 -129 -245 -129q-106 0 -166 47t-60 134q0 28 7 60q24 114 117 179q87 60 204 60q230 0 230 -216q0 -54 -14 -122q-39 -181 -128 -280q-96 -106 -241 -106q-112 0 -168 48q-48 41 -48 110
q0 11 1 22zM626 466q4 20 4 39q0 61 -37 98q-44 43 -130 43q-85 0 -150 -47q-67 -50 -85 -131q-4 -21 -4 -40q0 -62 43 -100t121 -38q109 0 175 63q49 46 63 113z" />
    <glyph glyph-name="colon" unicode=":" horiz-adv-x="278" 
d="M96 0l23 110h86l-23 -110h-86zM180 396l24 110h86l-24 -110h-86z" />
    <glyph glyph-name="semicolon" unicode=";" horiz-adv-x="278" 
d="M96 0l23 110h86l-23 -112q-24 -112 -125 -138l8 38q31 12 46 39q12 20 21 63h-36zM180 396l24 110h86l-24 -110h-86z" />
    <glyph glyph-name="less" unicode="&#x3c;" horiz-adv-x="600" 
d="M95 225l12 56l555 233l-12 -56l-487 -205l400 -205l-12 -56z" />
    <glyph glyph-name="equal" unicode="=" horiz-adv-x="600" 
d="M116 325l11 50h506l-11 -50h-506zM75 131l10 50h506l-10 -50h-506z" />
    <glyph glyph-name="greater" unicode="&#x3e;" horiz-adv-x="600" 
d="M545 253l-401 205l12 56l457 -233l-12 -56l-556 -233l12 56z" />
    <glyph glyph-name="question" unicode="?" horiz-adv-x="648" 
d="M232 491h-74q22 104 101 170q85 71 210 71q95 0 154 -39q66 -43 66 -122q0 -21 -5 -45q-14 -64 -58 -108q-33 -33 -127 -91q-73 -45 -91.5 -67.5t-29.5 -74.5h-68q17 77 42 106q22 25 132 96q59 38 80 58q36 34 46 81q3 14 3 27q0 51 -44 81t-115 30q-181 0 -222 -173z
M262 0l23 110h86l-23 -110h-86z" />
    <glyph glyph-name="at" unicode="@" horiz-adv-x="800" 
d="M305 250q0 -67 65 -67q72 0 146 89q68 80 84 158q5 22 5 39q0 60 -66 60q-80 0 -159 -100q-75 -95 -75 -179zM646 494l38 67h56l-162 -298q-20 -36 -25 -60q-5 -26 21 -26q61 0 134 84q71 81 88 162q6 28 6 55q0 95 -69 154q-67 56 -168 56q-138 0 -252.5 -98
t-142.5 -233q-8 -36 -8 -70q0 -113 73.5 -187t189.5 -74q78 0 160.5 38.5t134.5 102.5h56q-65 -85 -163.5 -135t-197.5 -50q-137 0 -221 85q-83 82 -83 210q0 39 9 80q33 156 166 265.5t289 109.5q123 0 200 -68.5t77 -178.5q0 -32 -7 -65q-24 -113 -118 -202
q-91 -85 -173 -85q-53 0 -53 49q0 9 2 20h-2q-77 -69 -150 -69q-52 0 -80.5 31t-28.5 80q0 18 4 38q24 112 110 201q93 96 198 96q79 0 92 -85z" />
    <glyph glyph-name="A" unicode="A" horiz-adv-x="722" 
d="M578 285l-82 355l-234 -355h316zM642 0l-49 217h-376l-143 -217h-80l476 714h86l172 -714h-86z" />
    <glyph glyph-name="B" unicode="B" horiz-adv-x="741" 
d="M66 0l152 714h406q166 0 166 -133q0 -74 -44 -129t-117 -71v-2q56 -9 87 -44t31 -89q0 -20 -5 -42q-22 -103 -110 -158q-74 -46 -169 -46h-397zM277 646l-51 -242h293q164 0 191 127q4 18 4 32q0 83 -119 83h-318zM211 336l-57 -268h311q168 0 197 136q5 22 5 40
q0 92 -127 92h-329z" />
    <glyph glyph-name="C" unicode="C" horiz-adv-x="815" 
d="M758 272h74q-39 -124 -149 -205q-117 -85 -266 -85q-147 0 -229 74t-82 204q0 46 11 97q31 144 138 249q131 126 322 126q123 0 202 -53q91 -61 91 -177q0 -14 -1 -29h-74q4 96 -66 147q-62 44 -167 44q-138 0 -232 -75q-101 -81 -133 -232q-10 -45 -10 -85
q0 -100 56 -157q63 -65 189 -65q238 0 326 222z" />
    <glyph glyph-name="D" unicode="D" horiz-adv-x="778" 
d="M66 0l152 714h347q253 0 253 -241q0 -53 -13 -116q-33 -157 -132 -254q-104 -103 -249 -103h-358zM277 646l-123 -578h270q239 0 301 289q13 60 13 108q0 181 -191 181h-270z" />
    <glyph glyph-name="E" unicode="E" horiz-adv-x="685" 
d="M78 0l152 714h568l-15 -68h-494l-51 -242h476l-15 -68h-476l-57 -268h502l-14 -68h-576z" />
    <glyph glyph-name="F" unicode="F" horiz-adv-x="611" 
d="M66 0l152 714h535l-15 -68h-461l-51 -242h438l-15 -68h-438l-71 -336h-74z" />
    <glyph glyph-name="G" unicode="G" horiz-adv-x="852" 
d="M729 0l19 135h-2q-73 -80 -148 -116q-79 -37 -182 -37q-149 0 -227.5 73t-78.5 200q0 48 12 102q35 165 159 268q128 107 303 107q143 0 224 -72q76 -68 69 -172h-80q-3 87 -67 133q-60 43 -161 43q-144 0 -240.5 -82t-126.5 -225q-11 -51 -11 -95q0 -212 234 -212
q261 0 357 250h-262l14 68h330l-78 -368h-57z" />
    <glyph glyph-name="H" unicode="H" horiz-adv-x="796" 
d="M66 0l152 714h74l-64 -302h516l64 302h74l-152 -714h-74l73 344h-516l-73 -344h-74z" />
    <glyph glyph-name="I" unicode="I" horiz-adv-x="222" 
d="M74 0l152 714h74l-152 -714h-74z" />
    <glyph glyph-name="J" unicode="J" horiz-adv-x="556" 
d="M149 234l-6 -26q-6 -30 -6 -54q0 -110 129 -110q80 0 125 36q51 41 72 140l105 494h74l-109 -514q-22 -100 -91 -157q-75 -61 -193 -61q-186 0 -186 155q0 34 12 97h74z" />
    <glyph glyph-name="K" unicode="K" horiz-adv-x="741" 
d="M78 0l152 714h74l-82 -386l543 386h107l-417 -295l289 -419h-105l-253 369l-183 -128l-51 -241h-74z" />
    <glyph glyph-name="L" unicode="L" horiz-adv-x="593" 
d="M66 0l152 714h74l-138 -646h453l-14 -68h-527z" />
    <glyph glyph-name="M" unicode="M" horiz-adv-x="981" 
d="M512 93l450 621h105l-152 -714h-74l131 617h-2l-446 -617h-68l-183 618h-2l-131 -618h-74l152 714h108z" />
    <glyph glyph-name="N" unicode="N" horiz-adv-x="796" 
d="M66 0l152 714h89l369 -610h2l130 610h74l-152 -714h-86l-372 610h-2l-130 -610h-74z" />
    <glyph glyph-name="O" unicode="O" horiz-adv-x="852" 
d="M114 357q38 180 178 282q126 93 290 93q139 0 225 -70q93 -75 93 -211q0 -45 -10 -94q-38 -180 -178 -282q-127 -93 -290 -93q-139 0 -225 70q-94 75 -94 211q0 45 11 94zM194 357q-9 -43 -9 -82q0 -111 75 -171q67 -54 177 -54q129 0 228 73q113 83 145 234q9 43 9 82
q0 111 -75 171q-68 54 -177 54q-129 0 -228 -73q-113 -83 -145 -234z" />
    <glyph glyph-name="P" unicode="P" horiz-adv-x="704" 
d="M289 646l-59 -278h286q160 0 190 140q5 25 5 45q0 93 -121 93h-301zM78 0l152 714h385q78 0 124 -34q53 -39 53 -116q0 -26 -6 -56q-21 -101 -97 -154.5t-195 -53.5h-278l-64 -300h-74z" />
    <glyph glyph-name="Q" unicode="Q" horiz-adv-x="852" 
d="M508 152l50 49l93 -86q125 80 159 242q9 43 9 82q0 111 -75 171q-68 54 -177 54q-129 0 -228 -73q-113 -83 -145 -234q-9 -43 -9 -82q0 -111 75 -171q67 -54 177 -54q80 0 149 30zM791 -14l-49 -49l-103 95q-101 -50 -217 -50q-139 0 -225 70q-94 75 -94 211q0 45 11 94
q38 180 178 282q126 93 290 93q139 0 225 -70q93 -75 93 -211q0 -45 -10 -94q-40 -189 -188 -288z" />
    <glyph glyph-name="R" unicode="R" horiz-adv-x="741" 
d="M78 0l152 714h389q197 0 197 -141q0 -24 -6 -52q-13 -60 -58 -107q-49 -51 -119 -66v-2q93 -15 93 -113q0 -32 -9 -85q-12 -74 -12 -114q0 -27 6 -34h-80q-5 7 -5 26q0 36 17 120q7 36 7 63q0 57 -34 81t-110 24h-287l-67 -314h-74zM289 646l-56 -264h313q154 0 184 139
q4 19 4 35q0 90 -125 90h-320z" />
    <glyph glyph-name="S" unicode="S" 
d="M732 510h-74q2 14 2 26q0 128 -193 128q-89 0 -151 -33q-65 -34 -78 -93q-3 -14 -3 -25q0 -50 60 -77q45 -20 174 -42q107 -19 154 -43q70 -37 70 -108q0 -18 -4 -38q-26 -120 -135 -177q-87 -46 -211 -46q-274 0 -274 199q0 26 4 55h74q-2 -19 -2 -37q0 -84 59 -119
q50 -30 154 -30q218 0 248 142q3 13 3 24q0 58 -73 85q-36 14 -160 34q-114 19 -167 52q-58 37 -58 100q0 18 5 38q23 108 123 162q84 45 203 45q111 0 177 -38q78 -45 78 -138q0 -21 -5 -46z" />
    <glyph glyph-name="T" unicode="T" horiz-adv-x="630" 
d="M278 0l137 646h-280l15 68h634l-15 -68h-280l-137 -646h-74z" />
    <glyph glyph-name="U" unicode="U" horiz-adv-x="778" 
d="M860 714l-93 -438q-27 -127 -95 -196q-97 -98 -287 -98q-268 0 -268 199q0 41 12 95l93 438h74l-93 -438q-8 -38 -8 -70q0 -156 205 -156q245 0 293 226l93 438h74z" />
    <glyph glyph-name="V" unicode="V" horiz-adv-x="685" 
d="M365 84l407 630h80l-468 -714h-80l-167 714h86z" />
    <glyph glyph-name="W" unicode="W" horiz-adv-x="1056" 
d="M808 98l331 616h80l-392 -714h-86l-85 610h-2l-342 -610h-86l-85 714h83l67 -616h2l342 616h91l80 -616h2z" />
    <glyph glyph-name="X" unicode="X" horiz-adv-x="667" 
d="M-8 0l367 362l-203 352h99l169 -294l302 294h92l-354 -348l211 -366h-98l-179 307l-311 -307h-95z" />
    <glyph glyph-name="Y" unicode="Y" horiz-adv-x="686" 
d="M306 0l64 300l-233 414h96l189 -340l335 340h96l-409 -414l-64 -300h-74z" />
    <glyph glyph-name="Z" unicode="Z" horiz-adv-x="648" 
d="M5 0l14 68l653 578h-496l15 68h596l-15 -68l-656 -578h541l-14 -68h-638z" />
    <glyph glyph-name="bracketleft" unicode="[" horiz-adv-x="352" 
d="M68 -190l192 904h196l-12 -56h-128l-168 -792h128l-12 -56h-196z" />
    <glyph glyph-name="backslash" unicode="\" horiz-adv-x="407" 
d="M344 -18l-185 750h56l185 -750h-56z" />
    <glyph glyph-name="bracketright" unicode="]" horiz-adv-x="352" 
d="M396 714l-192 -904h-196l12 56h128l168 792h-128l12 56h196z" />
    <glyph glyph-name="asciicircum" unicode="^" horiz-adv-x="600" 
d="M551 239l-117 391l-283 -391h-56l327 453h50l135 -453h-56z" />
    <glyph glyph-name="underscore" unicode="_" horiz-adv-x="500" 
d="M-27 -125l11 50h500l-11 -50h-500z" />
    <glyph glyph-name="grave" unicode="`" horiz-adv-x="184" 
d="M198 740l85 -142h-61l-115 142h91z" />
    <glyph glyph-name="a" unicode="a" horiz-adv-x="611" 
d="M514 201l17 79q-26 -15 -78 -22q-33 -5 -162 -17q-138 -13 -156 -96q-3 -13 -3 -25q0 -80 131 -80q83 0 154 40q81 46 97 121zM198 360h-68q27 87 88 129q70 47 197 47q210 0 210 -115q0 -18 -5 -39l-58 -272q-3 -16 -3 -27q0 -31 32 -31q13 0 39 2l-10 -50
q-42 -8 -64 -8q-65 0 -65 54q0 14 5 38h-2q-93 -104 -265 -104q-70 0 -117 27q-56 33 -56 96q0 15 4 33q20 94 115 132q60 25 178 31q122 7 155.5 18.5t41.5 50.5q3 15 3 27q0 40 -36.5 57.5t-116.5 17.5q-89 0 -137.5 -26.5t-64.5 -87.5z" />
    <glyph glyph-name="b" unicode="b" horiz-adv-x="667" 
d="M57 0l153 720h74l-65 -304h2q38 52 100 85q67 35 138 35q116 0 177 -60q55 -55 55 -147q0 -33 -8 -69q-23 -111 -101 -186q-94 -90 -240 -90q-84 0 -137 44q-39 32 -50 76h-2l-22 -104h-74zM182 260q-6 -28 -6 -54q0 -75 49 -117.5t130 -42.5q111 0 185.5 78.5
t74.5 188.5q0 75 -46.5 118t-122.5 43q-106 0 -180 -67q-65 -59 -84 -147z" />
    <glyph glyph-name="c" unicode="c" horiz-adv-x="611" 
d="M552 186h74q-31 -74 -93 -126q-89 -76 -213 -76q-118 0 -180.5 55.5t-62.5 150.5q0 33 8 70q26 123 115 197q95 79 237 79q120 0 178 -65q45 -51 41 -121h-74q-5 124 -158 124q-107 0 -179 -62q-66 -57 -86 -152q-6 -30 -6 -58q0 -73 46 -114.5t134 -41.5q156 0 219 140z
" />
    <glyph glyph-name="d" unicode="d" horiz-adv-x="667" 
d="M595 260q6 26 6 52q0 70 -42 114q-47 48 -136 48q-90 0 -161 -57q-73 -60 -94 -157q-6 -29 -6 -56q0 -69 38 -110q44 -48 132 -48q95 0 168.5 57.5t94.5 156.5zM536 0l22 104h-2q-29 -44 -82 -76q-71 -44 -155 -44q-122 0 -182 63q-50 54 -50 143q0 146 100.5 246
t248.5 100q71 0 123 -35q48 -33 63 -85h2l65 304h74l-153 -720h-74z" />
    <glyph glyph-name="e" unicode="e" horiz-adv-x="648" 
d="M176 298h428q5 90 -49 136q-46 40 -127 40q-80 0 -145 -40q-76 -47 -107 -136zM563 166h74q-98 -182 -318 -182q-122 0 -182 63q-50 54 -50 143q0 146 100.5 246t248.5 100q102 0 164 -42q77 -53 77 -164q0 -41 -11 -88h-502q-4 -23 -4 -45q0 -67 44.5 -109t127.5 -42
q90 0 146 30q52 29 85 90z" />
    <glyph glyph-name="f" unicode="f" horiz-adv-x="315" 
d="M107 0l99 464h-113l12 56h113l14 69q15 71 59 102q40 29 115 29q37 0 82 -4l-13 -62q-45 4 -68 4q-50 0 -71.5 -16t-31.5 -61l-12 -61h147l-12 -56h-147l-99 -464h-74z" />
    <glyph glyph-name="g" unicode="g" horiz-adv-x="667" 
d="M598 271q5 24 5 47q0 69 -45 111q-49 45 -139 45q-99 0 -168 -54t-89 -149q-7 -33 -7 -61q0 -148 182 -148q94 0 167 56t94 153zM627 419l22 101h74l-107 -500q-28 -131 -135 -192q-85 -48 -208 -48q-231 0 -231 143q0 11 1 26h68q-1 -55 23 -78q37 -35 154 -35
q215 0 255 189l20 93h-2q-87 -118 -255 -118q-96 0 -156 44q-71 51 -71 153q0 34 9 74q23 112 107 184q94 81 233 81q78 0 131 -29.5t66 -87.5h2z" />
    <glyph glyph-name="h" unicode="h" horiz-adv-x="630" 
d="M57 0l153 720h74l-64 -302h2q28 46 89 80q71 38 151 38q188 0 188 -145q0 -31 -9 -69l-68 -322h-74l71 335q5 22 5 41q0 98 -132 98q-211 0 -252 -192l-60 -282h-74z" />
    <glyph glyph-name="i" unicode="i" horiz-adv-x="184" 
d="M55 0l111 520h74l-111 -520h-74zM185 610l23 110h74l-23 -110h-74z" />
    <glyph glyph-name="j" unicode="j" horiz-adv-x="184" 
d="M-122 -217l13 62q23 -3 49 -3q48 0 70 20q19 17 28 59l128 599h74l-128 -599q-30 -141 -165 -141q-1 0 -69 3zM185 610l23 110h74l-23 -110h-74z" />
    <glyph glyph-name="k" unicode="k" horiz-adv-x="574" 
d="M57 0l153 720h74l-96 -453l371 253h110l-297 -197l205 -323h-98l-173 275l-135 -89l-40 -186h-74z" />
    <glyph glyph-name="l" unicode="l" horiz-adv-x="184" 
d="M55 0l153 720h74l-153 -720h-74z" />
    <glyph glyph-name="m" unicode="m" horiz-adv-x="1000" 
d="M869 0l70 330q5 25 5 45q0 99 -129 99q-85 0 -140.5 -45t-72.5 -122l-65 -307h-74l75 352q3 14 3 27q0 43 -30 68q-33 27 -95 27q-83 0 -142 -46q-62 -48 -81 -135l-62 -293h-74l111 520h74l-21 -96h2q87 112 230 112q80 0 123 -37q35 -31 39 -77q30 44 88 77
q68 37 140 37q181 0 181 -136q0 -21 -6 -45l-75 -355h-74z" />
    <glyph glyph-name="n" unicode="n" horiz-adv-x="630" 
d="M499 0l71 335q5 22 5 41q0 98 -132 98q-211 0 -252 -192l-60 -282h-74l111 520h74l-22 -102h2q28 46 89 80q71 38 151 38q188 0 188 -145q0 -31 -9 -69l-68 -322h-74z" />
    <glyph glyph-name="o" unicode="o" 
d="M168 260q-6 -28 -6 -54q0 -74 47 -117t135 -43q103 0 176 60q70 58 90 154q6 28 6 54q0 74 -47 117t-134 43q-103 0 -174.5 -59t-92.5 -155zM94 260q25 117 114 192q98 84 240 84q121 0 185 -62q58 -55 58 -149q0 -31 -7 -65q-25 -117 -113 -192q-98 -84 -240 -84
q-121 0 -186 62q-58 55 -58 149q0 31 7 65z" />
    <glyph glyph-name="p" unicode="p" horiz-adv-x="667" 
d="M14 -202l154 722h74l-23 -104h2q80 120 238 120q122 0 181 -63q51 -54 51 -143q0 -146 -100.5 -246t-248.5 -100q-71 0 -123 35q-48 33 -64 85h-2l-65 -306h-74zM182 260q-5 -26 -5 -52q0 -70 41 -114q47 -48 137 -48t160 57q74 60 94 157q6 29 6 56q0 69 -38 110
q-44 48 -131 48q-95 0 -167 -56q-76 -59 -97 -158z" />
    <glyph glyph-name="q" unicode="q" horiz-adv-x="667" 
d="M624 416l23 104h74l-154 -722h-74l65 306h-2q-38 -52 -100 -85q-67 -35 -137 -35q-117 0 -177 60q-55 55 -55 147q0 33 7 69q23 108 106 186q96 90 230 90q87 0 141 -42q44 -34 51 -78h2zM595 260q6 28 6 54q0 75 -48.5 117.5t-129.5 42.5q-111 0 -186 -78.5t-75 -188.5
q0 -75 47 -118t123 -43q106 0 180 67q65 59 83 147z" />
    <glyph glyph-name="r" unicode="r" horiz-adv-x="370" 
d="M57 0l111 520h74l-26 -119h2q88 135 228 135q22 0 43 -4l-16 -76q-33 6 -67 6q-70 0 -127 -43q-70 -53 -92 -154l-56 -265h-74z" />
    <glyph glyph-name="s" unicode="s" horiz-adv-x="556" 
d="M590 366h-68q-1 61 -38 86q-35 22 -118 22q-150 0 -169 -89q-2 -10 -2 -17q0 -29 37 -43q33 -12 140 -26.5t149 -36.5q48 -25 48 -77q0 -16 -4 -36q-17 -78 -88 -121q-74 -44 -194 -44q-230 0 -230 137q0 20 5 42h68q-4 -65 33 -91t137 -26q173 0 194 99q2 9 2 17
q0 31 -39 47.5t-142.5 26.5t-148 35.5t-44.5 75.5q0 16 4 35q15 70 79 111q68 43 178 43q213 0 213 -139q0 -15 -2 -31z" />
    <glyph glyph-name="t" unicode="t" horiz-adv-x="352" 
d="M218 520l34 164h74l-34 -164h147l-12 -56h-147l-73 -344q-4 -15 -4 -26q0 -40 63 -40q45 0 75 6l-13 -62q-44 -6 -83 -6q-119 0 -119 79q0 21 7 50l73 343h-113l12 56h113z" />
    <glyph glyph-name="u" unicode="u" horiz-adv-x="630" 
d="M499 0l22 102h-2q-29 -46 -90 -80q-70 -38 -150 -38q-188 0 -188 145q0 31 8 69l69 322h74l-72 -335q-4 -22 -4 -41q0 -98 132 -98q211 0 252 192l60 282h74l-111 -520h-74z" />
    <glyph glyph-name="v" unicode="v" horiz-adv-x="556" 
d="M296 85l297 435h80l-355 -520h-80l-133 520h80z" />
    <glyph glyph-name="w" unicode="w" horiz-adv-x="889" 
d="M663 97l257 423h80l-322 -520h-80l-69 416l-243 -416h-80l-95 520h80l74 -426l248 426h80z" />
    <glyph glyph-name="x" unicode="x" horiz-adv-x="574" 
d="M-3 0l296 270l-168 250h96l133 -198l218 198h97l-279 -250l187 -270h-98l-147 216l-238 -216h-97z" />
    <glyph glyph-name="y" unicode="y" horiz-adv-x="556" 
d="M304 87l289 433h80l-414 -617q-41 -62 -77 -83.5t-97 -21.5q-49 0 -71 2l14 62q31 -2 52 -2q41 0 66 13t51 51l49 72l-141 524h80z" />
    <glyph glyph-name="z" unicode="z" horiz-adv-x="556" 
d="M20 0l13 62l479 396h-372l14 62h478l-14 -62l-487 -396h418l-13 -62h-516z" />
    <glyph glyph-name="braceleft" unicode="{" horiz-adv-x="352" 
d="M100 243l8 38q35 0 53.5 28t35.5 109l37 175q26 121 133 121h58l-8 -38h-49q-48 0 -66 -83l-37 -175q-29 -135 -111 -155l-1 -2q53 -14 53 -94q0 -27 -7 -61l-38 -175q-5 -26 -5 -43q0 -40 36 -40h49l-8 -38h-58q-86 0 -86 80q0 18 4 41l38 175q12 59 12 88q0 49 -43 49z
" />
    <glyph glyph-name="bar" unicode="|" horiz-adv-x="222" 
d="M82 -18l160 750h50l-160 -750h-50z" />
    <glyph glyph-name="braceright" unicode="}" horiz-adv-x="352" 
d="M39 -190l8 38h49q48 0 65 83l38 175q28 135 110 155l1 2q-52 14 -52 94q0 27 7 61l37 175q6 26 6 43q0 40 -36 40h-49l8 38h58q86 0 86 -80q0 -18 -5 -41l-37 -175q-13 -59 -13 -88q0 -49 44 -49l-8 -38q-35 0 -53.5 -28t-35.5 -109l-38 -175q-25 -121 -132 -121h-58z
" />
    <glyph glyph-name="asciitilde" unicode="~" horiz-adv-x="600" 
d="M562 316v0l29 -36q-39 -42 -63 -59q-39 -27 -81 -27t-95 33q-56 35 -107 35t-100 -72l-28 36q63 86 143 86q39 0 105 -32q74 -36 94 -36q41 0 103 72z" />
    <glyph glyph-name="Euro" 
d="M738 553q-7 19 -19.5 36t-38.5 31q-30 17 -63 21.5t-62 4.5q-16 0 -38.5 -2t-49 -9t-54 -20.5t-52.5 -36.5t-45.5 -56t-32.5 -66h381l-39 -50h-360q-8 -27 -13.5 -54t-8.5 -53h305l-39 -50h-272q-3 -35 3 -69.5t21 -60.5q14 -24 33 -38.5t40 -22t42.5 -10t42.5 -2.5
q41 0 77.5 7.5t78.5 27.5q58 29 102 73l-19 -86q-18 -14 -40.5 -28t-46.5 -24q-38 -16 -84 -24t-85 -8q-26 0 -54.5 3.5t-56 14t-52.5 29.5t-43 49q-20 32 -28.5 76.5t-4.5 92.5h-100l39 50h67q3 26 8.5 53t13.5 54h-95l39 50h74q16 42 44.5 86.5t66.5 78.5q33 30 67.5 47
t67 26t62 11.5t53.5 2.5q32 0 74 -5.5t79 -25.5q26 -14 41.5 -31.5t23.5 -32.5z" />
    <glyph glyph-name="Euro" unicode="&#x20ac;" 
d="M738 553q-7 19 -19.5 36t-38.5 31q-30 17 -63 21.5t-62 4.5q-16 0 -38.5 -2t-49 -9t-54 -20.5t-52.5 -36.5t-45.5 -56t-32.5 -66h381l-39 -50h-360q-8 -27 -13.5 -54t-8.5 -53h305l-39 -50h-272q-3 -35 3 -69.5t21 -60.5q14 -24 33 -38.5t40 -22t42.5 -10t42.5 -2.5
q41 0 77.5 7.5t78.5 27.5q58 29 102 73l-19 -86q-18 -14 -40.5 -28t-46.5 -24q-38 -16 -84 -24t-85 -8q-26 0 -54.5 3.5t-56 14t-52.5 29.5t-43 49q-20 32 -28.5 76.5t-4.5 92.5h-100l39 50h67q3 26 8.5 53t13.5 54h-95l39 50h74q16 42 44.5 86.5t66.5 78.5q33 30 67.5 47
t67 26t62 11.5t53.5 2.5q32 0 74 -5.5t79 -25.5q26 -14 41.5 -31.5t23.5 -32.5z" />
    <glyph glyph-name="quotesinglbase" unicode="&#x201a;" horiz-adv-x="278" 
d="M96 0l23 110h86l-23 -112q-24 -112 -125 -138l8 38q31 12 46 39q12 20 21 63h-36z" />
    <glyph glyph-name="florin" unicode="&#x192;" 
d="M237 356l18 44h135l66 156q39 92 97 127q42 25 106 25q37 0 84 -8l-24 -60q-44 6 -68 6q-46 0 -70 -19q-31 -24 -62 -97l-55 -130h139l-20 -44h-137l-157 -371q-38 -89 -74 -126q-54 -55 -141 -55q-37 0 -86 7l25 60q54 -5 66 -5q55 0 81 24t62 109l150 357h-135z" />
    <glyph glyph-name="quotedblbase" unicode="&#x201e;" horiz-adv-x="407" 
d="M71 0l23 110h86l-23 -112q-24 -112 -125 -138l8 38q31 12 46 39q12 20 21 63h-36zM250 0l23 110h86l-23 -112q-24 -112 -125 -138l8 38q31 12 46 39q12 20 21 63h-36z" />
    <glyph glyph-name="ellipsis" unicode="&#x2026;" horiz-adv-x="1000" 
d="M124 0l23 110h86l-23 -110h-86zM457 0l23 110h86l-23 -110h-86zM790 0l23 110h86l-23 -110h-86z" />
    <glyph glyph-name="dagger" unicode="&#x2020;" 
d="M264 -156l123 581h-241l14 62h241l48 227h74l-48 -227h241l-14 -62h-241l-123 -581h-74z" />
    <glyph glyph-name="daggerdbl" unicode="&#x2021;" 
d="M264 -156l46 217h-241l13 62h241l68 317h-241l13 62h241l45 212h74l-45 -212h241l-13 -62h-241l-68 -317h241l-13 -62h-241l-46 -217h-74z" />
    <glyph glyph-name="circumflex" unicode="&#x2c6;" horiz-adv-x="184" 
d="M36 598l173 142h80l113 -142h-75l-86 101l-130 -101h-75z" />
    <glyph glyph-name="perthousand" unicode="&#x2030;" horiz-adv-x="1167" 
d="M993 34q53 0 91 38t53 106q5 26 5 49q0 95 -88 95q-53 0 -91 -38t-52 -106q-6 -26 -6 -49q0 -95 88 -95zM117 -16l629 724h59l-629 -724h-59zM260 370q53 0 91 38t52 106q6 26 6 49q0 95 -88 95q-53 0 -91 -38t-53 -106q-5 -26 -5 -49q0 -95 88 -95zM983 -16
q-65 0 -103 35.5t-38 101.5q0 26 7 57q20 93 81 145q57 49 135 49q65 0 102.5 -35.5t37.5 -101.5q0 -26 -6 -57q-20 -93 -79.5 -143.5t-136.5 -50.5zM249 320q-65 0 -102.5 35.5t-37.5 101.5q0 26 6 57q20 93 81 145q58 49 135 49q65 0 103 -35.5t38 -101.5q0 -26 -7 -57
q-20 -93 -81 -145q-57 -49 -135 -49zM591 -16q-65 0 -103 35.5t-38 101.5q0 26 7 57q20 93 81 145q57 49 135 49q65 0 102.5 -35.5t37.5 -101.5q0 -26 -6 -57q-20 -93 -79.5 -143.5t-136.5 -50.5zM601 34q53 0 91 38t53 106q5 26 5 49q0 95 -88 95q-53 0 -91 -38t-52 -106
q-6 -26 -6 -49q0 -95 88 -95z" />
    <glyph glyph-name="Scaron" unicode="&#x160;" 
d="M732 510h-74q2 14 2 26q0 128 -193 128q-89 0 -151 -33q-65 -34 -78 -93q-3 -14 -3 -25q0 -50 60 -77q45 -20 174 -42q107 -19 154 -43q70 -37 70 -108q0 -18 -4 -38q-26 -120 -135 -177q-87 -46 -211 -46q-274 0 -274 199q0 26 4 55h74q-2 -19 -2 -37q0 -84 59 -119
q50 -30 154 -30q218 0 248 142q3 13 3 24q0 58 -73 85q-36 14 -160 34q-114 19 -167 52q-58 37 -58 100q0 18 5 38q23 108 123 162q84 45 203 45q111 0 177 -38q78 -45 78 -138q0 -21 -5 -46zM707 894l-173 -142h-80l-113 142h75l87 -101l129 101h75z" />
    <glyph glyph-name="guilsinglleft" unicode="&#x2039;" horiz-adv-x="315" 
d="M124 238l15 72l186 135l-17 -77l-133 -94l93 -94l-16 -77z" />
    <glyph glyph-name="OE" unicode="&#x152;" horiz-adv-x="1167" 
d="M654 178l79 373q6 28 -40 65q-59 48 -160 48q-117 0 -209 -79q-99 -84 -130 -228q-11 -51 -11 -94q0 -105 61 -161q57 -52 159 -52q100 0 181 53q63 43 70 75zM616 0l17 78q-103 -96 -245 -96q-129 0 -205 67q-81 71 -81 202q0 50 12 106q33 154 144 259q123 116 290 116
q153 0 203 -86h2l15 68h515l-15 -68h-441l-51 -242h418l-15 -68h-418l-57 -268h446l-14 -68h-520z" />
    <glyph glyph-name="Zcaron" horiz-adv-x="648" 
d="M5 0l14 68l653 578h-496l15 68h596l-15 -68l-656 -578h541l-14 -68h-638zM697 894l-173 -142h-80l-113 142h75l87 -101l129 101h75z" />
    <glyph glyph-name="Zcaron" unicode="&#x17d;" horiz-adv-x="648" 
d="M5 0l14 68l653 578h-496l15 68h596l-15 -68l-656 -578h541l-14 -68h-638zM697 894l-173 -142h-80l-113 142h75l87 -101l129 101h75z" />
    <glyph glyph-name="quoteleft" unicode="&#x2018;" horiz-adv-x="278" 
d="M195 464l23 112q24 112 125 138l-8 -38q-31 -12 -46 -39q-12 -20 -21 -63h36l-23 -110h-86z" />
    <glyph glyph-name="quoteright" unicode="&#x2019;" horiz-adv-x="278" 
d="M224 604l24 110h86l-24 -112q-24 -112 -124 -138l8 38q30 12 45 39q12 20 21 63h-36z" />
    <glyph glyph-name="quotedblleft" unicode="&#x201c;" horiz-adv-x="407" 
d="M349 464l23 112q24 112 125 138l-8 -38q-31 -12 -46 -39q-12 -20 -21 -63h36l-23 -110h-86zM170 464l23 112q24 112 125 138l-8 -38q-31 -12 -46 -39q-12 -20 -21 -63h36l-23 -110h-86z" />
    <glyph glyph-name="quotedblright" unicode="&#x201d;" horiz-adv-x="407" 
d="M378 604l24 110h86l-24 -112q-24 -112 -124 -138l8 38q30 12 45 39q12 20 21 63h-36zM199 604l24 110h86l-24 -112q-24 -112 -124 -138l8 38q30 12 45 39q12 20 21 63h-36z" />
    <glyph glyph-name="bullet" unicode="&#x2022;" horiz-adv-x="501" 
d="M148 357q16 74 79 126.5t137 52.5q64 0 104.5 -40t40.5 -101q0 -19 -4 -38q-16 -74 -79.5 -126t-137.5 -52q-64 0 -104 39.5t-40 100.5q0 19 4 38z" />
    <glyph glyph-name="endash" unicode="&#x2013;" horiz-adv-x="500" 
d="M52 243l13 62h500l-13 -62h-500z" />
    <glyph glyph-name="emdash" unicode="&#x2014;" horiz-adv-x="1000" 
d="M52 243l13 62h1000l-13 -62h-1000z" />
    <glyph glyph-name="tilde" unicode="&#x2dc;" horiz-adv-x="184" 
d="M387 723v0h44q-18 -44 -42 -70q-36 -38 -84 -38q-36 0 -84.5 26t-73.5 26q-47 0 -65 -52h-44q46 108 126 108q35 0 83.5 -26t74.5 -26q46 0 65 52z" />
    <glyph glyph-name="trademark" unicode="&#x2122;" horiz-adv-x="990" 
d="M241 302l78 368h-135l10 44h320l-10 -44h-135l-78 -368h-50zM735 380l199 334h86l-88 -412h-50l78 368h-2l-227 -368h-30l-71 368h-2l-78 -368h-50l88 412h86z" />
    <glyph glyph-name="scaron" unicode="&#x161;" horiz-adv-x="556" 
d="M590 366h-68q-1 61 -38 86q-35 22 -118 22q-150 0 -169 -89q-2 -10 -2 -17q0 -29 37 -43q33 -12 140 -26.5t149 -36.5q48 -25 48 -77q0 -16 -4 -36q-17 -78 -88 -121q-74 -44 -194 -44q-230 0 -230 137q0 20 5 42h68q-4 -65 33 -91t137 -26q173 0 194 99q2 9 2 17
q0 31 -39 47.5t-142.5 26.5t-148 35.5t-44.5 75.5q0 16 4 35q15 70 79 111q68 43 178 43q213 0 213 -139q0 -15 -2 -31zM618 740l-173 -142h-80l-113 142h75l87 -101l129 101h75z" />
    <glyph glyph-name="guilsinglright" unicode="&#x203a;" horiz-adv-x="315" 
d="M256 274l-93 94l17 77l128 -135l-15 -72l-186 -135l16 77z" />
    <glyph glyph-name="oe" unicode="&#x153;" horiz-adv-x="1093" 
d="M1012 166h74q-41 -77 -112 -125q-82 -57 -183 -57q-86 0 -143 32q-63 36 -72 105q-103 -137 -279 -137q-104 0 -162 58t-58 152q0 32 7 66q25 114 113 192q95 84 221 84q104 0 159 -41q43 -33 62 -99q94 140 269 140q86 0 143 -42q74 -54 74 -165q0 -40 -10 -87h-475
q-6 -31 -6 -58q0 -138 170 -138q143 0 208 120zM158 260q-6 -28 -6 -54q0 -73 45.5 -116t127.5 -44q95 -1 162 54t89 160q7 32 7 61q0 153 -164 153q-100 0 -172 -60q-68 -58 -89 -154zM652 298h401q5 89 -47 136q-44 40 -111 40q-174 0 -243 -176z" />
    <glyph glyph-name="zcaron" horiz-adv-x="556" 
d="M20 0l13 62l479 396h-372l14 62h478l-14 -62l-487 -396h418l-13 -62h-516zM618 740l-173 -142h-80l-113 142h75l87 -101l129 101h75z" />
    <glyph glyph-name="zcaron" unicode="&#x17e;" horiz-adv-x="556" 
d="M20 0l13 62l479 396h-372l14 62h478l-14 -62l-487 -396h418l-13 -62h-516zM618 740l-173 -142h-80l-113 142h75l87 -101l129 101h75z" />
    <glyph glyph-name="Ydieresis" unicode="&#x178;" horiz-adv-x="686" 
d="M306 0l64 300l-233 414h96l189 -340l335 340h96l-409 -414l-64 -300h-74zM354 758l24 110h74l-24 -110h-74zM580 758l24 110h74l-24 -110h-74z" />
    <glyph glyph-name="nonbreakingspace" unicode="&#xa0;" horiz-adv-x="278" 
 />
    <glyph glyph-name="exclamdown" unicode="&#xa1;" horiz-adv-x="296" 
d="M196 426l23 110h86l-23 -110h-86zM70 -178l40 189l91 340h44l-55 -340l-40 -189h-80z" />
    <glyph glyph-name="cent" unicode="&#xa2;" 
d="M331 47l91 426q-98 -9 -162 -72q-57 -56 -75 -141q-6 -31 -6 -58q0 -141 152 -155zM295 -124l23 109q-105 7 -160 61.5t-55 143.5q0 33 8 70q21 99 94 174q92 93 230 102l18 84h44l-18 -84q111 -5 165 -68q42 -50 38 -118h-74q-5 117 -142 124l-91 -428q144 9 203 140h74
q-31 -71 -89 -123q-84 -74 -201 -79l-23 -108h-44z" />
    <glyph glyph-name="sterling" unicode="&#xa3;" 
d="M121 320l9 44h72q-23 65 -23 99q0 16 3 31q20 94 103 153q87 61 211 61q112 0 169 -45t57 -127q0 -27 -6 -58h-74q4 21 4 40q0 66 -54 100q-45 28 -115 28q-75 0 -138 -38q-68 -42 -82 -110q-3 -14 -3 -29q0 -28 10 -62q6 -22 12 -43h221l-9 -44h-203q11 -43 0 -93
q-8 -38 -49.5 -86.5t-87.5 -76.5l1 -2q75 28 119 28q33 0 98 -19t95 -19q62 0 161 65l12 -62q-25 -23 -76 -45q-61 -26 -111 -26q-38 0 -112.5 22t-108.5 22q-67 0 -148 -42l-23 57q56 34 100 80q52 56 63 108q5 25 -7 89h-90z" />
    <glyph glyph-name="currency" unicode="&#xa4;" 
d="M115 136l66 56q-27 43 -27 101q0 119 92 207l-42 56l46 38l44 -55q78 55 166 55t144 -55l66 55l30 -38l-66 -56q27 -43 27 -101q0 -119 -92 -207l42 -56l-46 -38l-43 55q-79 -55 -167 -55t-143 55l-67 -55zM210 346q-5 -20 -5 -40q0 -68 45.5 -113t114.5 -45
q81 0 152 58.5t89 139.5q4 20 4 40q0 68 -45.5 113t-114.5 45q-81 0 -152 -58.5t-88 -139.5z" />
    <glyph glyph-name="yen" unicode="&#xa5;" 
d="M338 194l21 96l-6 11h-198l11 50h160l-186 341h86l183 -340l327 340h86l-330 -341h160l-11 -50h-198l-10 -11l-21 -96h206l-10 -50h-206l-31 -144h-74l31 144h-206l10 50h206z" />
    <glyph glyph-name="brokenbar" unicode="&#xa6;" horiz-adv-x="222" 
d="M82 -18l59 275h50l-59 -275h-50zM183 457l59 275h50l-59 -275h-50z" />
    <glyph glyph-name="section" unicode="&#xa7;" horiz-adv-x="667" 
d="M101 17h74q-2 -13 -2 -25q0 -104 147 -104q59 0 103 22q48 25 58 70q2 9 2 17q0 34 -35 62q-26 21 -91 52l-117 55q-63 30 -91 55q-34 32 -34 75q0 13 3 27q24 114 150 148q-40 31 -40 77q0 12 3 24q14 69 69 111q65 49 176 49q196 0 196 -137q0 -21 -5 -44h-74
q2 12 2 24q0 95 -133 95q-59 0 -101 -21q-55 -26 -55 -80q0 -34 38 -62q24 -17 92 -48l119 -55q59 -27 85 -52q33 -32 33 -78q0 -16 -4 -34q-13 -63 -65 -101q-29 -21 -84 -40q40 -33 40 -79q0 -15 -4 -32q-14 -67 -74 -111q-70 -51 -175 -51q-209 0 -209 152q0 18 3 39z
M189 341q-2 -12 -2 -21q0 -33 33 -57q21 -16 98 -52q97 -45 163 -82q25 0 61 23q47 30 57 77q2 10 2 19q0 48 -77 90q-109 52 -217 103q-27 -4 -62 -27q-47 -31 -56 -73z" />
    <glyph glyph-name="dieresis" unicode="&#xa8;" horiz-adv-x="184" 
d="M70 604l24 110h74l-24 -110h-74zM296 604l24 110h74l-24 -110h-74z" />
    <glyph glyph-name="copyright" unicode="&#xa9;" horiz-adv-x="800" 
d="M151 357q-8 -37 -8 -72q0 -113 72.5 -186t190.5 -73q137 0 251 96.5t144 235.5q8 36 8 72q0 112 -72.5 185t-190.5 73q-136 0 -251 -96.5t-144 -234.5zM606 280h56q-33 -72 -93.5 -116.5t-131.5 -44.5q-86 0 -134.5 49.5t-48.5 129.5q0 29 7 59q22 105 96.5 171t177.5 66
q76 0 120 -40q45 -43 40 -116h-56q1 47 -29.5 76.5t-84.5 29.5q-80 0 -135.5 -52.5t-72.5 -134.5q-5 -23 -5 -46q0 -62 34 -100q37 -42 102 -42q53 0 96 31t62 80zM101 357q33 155 166 265t289 110q134 0 218.5 -84t84.5 -213q0 -38 -8 -78q-33 -155 -166.5 -265
t-288.5 -110q-134 0 -219 84t-85 213q0 38 9 78z" />
    <glyph glyph-name="ordfeminine" unicode="&#xaa;" horiz-adv-x="397" 
d="M409 513l8 39q-25 -15 -133 -22q-58 -4 -82 -18q-20 -11 -25 -37q-1 -7 -1 -13q0 -46 77 -46q54 0 97 24q49 27 59 73zM494 432l-8 -38q-37 -4 -47 -4q-44 0 -44 31q0 7 3 20h-2q-38 -63 -165 -63q-45 0 -76 17q-37 20 -37 58q0 9 2 19q20 94 198 102q68 3 87.5 9.5
t23.5 25.5q2 8 2 14q0 41 -96 41q-106 0 -123 -62h-50q36 106 184 106q137 0 137 -71q0 -10 -2 -22l-33 -152q-2 -9 -2 -16q0 -19 22 -19q9 0 26 4z" />
    <glyph glyph-name="guillemotleft" unicode="&#xab;" horiz-adv-x="500" 
d="M309 238l15 72l186 135l-17 -77l-133 -94l93 -94l-16 -77zM124 238l15 72l186 135l-17 -77l-133 -94l93 -94l-16 -77z" />
    <glyph glyph-name="logicalnot" unicode="&#xac;" horiz-adv-x="600" 
d="M526 108l46 217h-456l11 50h506l-57 -267h-50z" />
    <glyph glyph-name="hyphen" unicode="&#xad;" horiz-adv-x="444" 
d="M120 237l16 74h304l-16 -74h-304z" />
    <glyph glyph-name="registered" unicode="&#xae;" horiz-adv-x="800" 
d="M101 357q33 155 166 265t289 110q134 0 218.5 -84t84.5 -213q0 -38 -8 -78q-33 -155 -166.5 -265t-288.5 -110q-134 0 -219 84t-85 213q0 38 9 78zM151 357q-8 -37 -8 -72q0 -113 72.5 -186t190.5 -73q137 0 251 96.5t144 235.5q8 36 8 72q0 112 -72.5 185t-190.5 73
q-136 0 -251 -96.5t-144 -234.5zM564 134l-88 198h-95l-43 -198h-50l95 446h171q123 0 123 -88q0 -17 -4 -36q-22 -105 -138 -124l91 -198h-62zM424 536l-34 -160h111q105 0 122 81q2 11 2 20q0 59 -90 59h-111z" />
    <glyph glyph-name="macron" unicode="&#xaf;" horiz-adv-x="184" 
d="M35 641l12 56h386l-12 -56h-386z" />
    <glyph glyph-name="degree" unicode="&#xb0;" horiz-adv-x="400" 
d="M350 708q52 0 84 -32t32 -81q0 -67 -54.5 -120t-121.5 -53q-51 0 -83.5 32t-32.5 81q0 67 54.5 120t121.5 53zM219 544q0 -34 22.5 -56t57.5 -22q47 0 84.5 36.5t37.5 83.5q0 34 -22 56t-58 22q-47 0 -84.5 -36.5t-37.5 -83.5z" />
    <glyph glyph-name="plusminus" unicode="&#xb1;" horiz-adv-x="600" 
d="M344 324l39 182h50l-39 -182h228l-11 -50h-228l-38 -182h-50l38 182h-228l11 50h228zM47 0l11 50h506l-11 -50h-506z" />
    <glyph glyph-name="twosuperior" unicode="&#xb2;" horiz-adv-x="434" 
d="M457 336l-10 -50h-352q15 47 45 77q44 44 142 88q90 40 121 63q37 27 45 66q3 11 3 21q0 63 -92 63q-116 0 -141 -107h-56q32 151 206 151q139 0 139 -101q0 -13 -3 -27q-18 -84 -133 -135q-111 -48 -148 -68.5t-50 -40.5h284z" />
    <glyph glyph-name="threesuperior" unicode="&#xb3;" horiz-adv-x="434" 
d="M289 484l9 44q8 -2 32 -2q106 0 120 67q2 7 2 13q0 58 -88 58q-120 0 -140 -96h-56q14 61 64 99q55 41 141 41q58 0 94 -21q42 -23 42 -69q0 -44 -30.5 -74.5t-74.5 -35.5v-2q36 -2 59 -23t23 -57q0 -11 -3 -24q-14 -66 -74 -100q-51 -28 -122 -28q-166 0 -166 106
q0 18 4 39h56q-3 -14 -3 -26q0 -75 122 -75q50 0 87 25q42 29 42 76q0 39 -44 54q-28 9 -96 11z" />
    <glyph glyph-name="acute" unicode="&#xb4;" horiz-adv-x="184" 
d="M155 598l145 142h91l-175 -142h-61z" />
    <glyph glyph-name="mu" unicode="&#xb5;" horiz-adv-x="630" 
d="M499 0l22 102h-2q-29 -46 -90 -80q-70 -38 -150 -38q-103 0 -141 50l-50 -236h-74l154 722h74l-72 -335q-4 -20 -4 -37q0 -102 132 -102q211 0 252 192l60 282h74l-111 -520h-74z" />
    <glyph glyph-name="paragraph" unicode="&#xb6;" horiz-adv-x="600" 
d="M216 -156l103 484q-76 0 -123.5 44t-47.5 109q0 19 4 37q20 94 89.5 145t175.5 51h217l-185 -870h-56l175 826h-121l-175 -826h-56z" />
    <glyph glyph-name="periodcentered" unicode="&#xb7;" horiz-adv-x="278" 
d="M219 378q24 0 39 -15t15 -38q0 -30 -25.5 -54.5t-56.5 -24.5q-23 0 -38 15t-15 38q0 30 25.5 54.5t55.5 24.5z" />
    <glyph glyph-name="periodcentered" unicode="&#x2219;" horiz-adv-x="278" 
d="M219 378q24 0 39 -15t15 -38q0 -30 -25.5 -54.5t-56.5 -24.5q-23 0 -38 15t-15 38q0 30 25.5 54.5t55.5 24.5z" />
    <glyph glyph-name="cedilla" unicode="&#xb8;" horiz-adv-x="184" 
d="M7 -78l74 80h41l-54 -57l2 -2q16 5 41 5q73 0 73 -54q0 -45 -52 -70q-42 -20 -92 -20q-48 0 -95 17l19 35q46 -14 80 -14q68 0 76 38q8 36 -44 36q-31 0 -55 -11z" />
    <glyph glyph-name="onesuperior" unicode="&#xb9;" horiz-adv-x="289" 
d="M207 286l65 306h-133l8 38h32q55 0 79 13q29 16 50 65h44l-89 -422h-56z" />
    <glyph glyph-name="ordmasculine" unicode="&#xba;" horiz-adv-x="434" 
d="M197 544q-4 -15 -4 -29q0 -44 30 -68.5t84 -24.5q62 0 106 33t56 89q3 15 3 28q0 43 -30 67.5t-84 24.5q-62 0 -106 -32.5t-55 -87.5zM367 708q80 0 123 -38q38 -34 38 -91q0 -89 -71 -147q-68 -54 -160 -54q-79 0 -122 38q-38 35 -38 92q0 89 71 146q67 54 159 54z" />
    <glyph glyph-name="guillemotright" unicode="&#xbb;" horiz-adv-x="500" 
d="M256 274l-93 94l17 77l128 -135l-15 -72l-186 -135l16 77zM441 274l-93 94l17 77l128 -135l-15 -72l-186 -135l16 77z" />
    <glyph glyph-name="onequarter" unicode="&#xbc;" horiz-adv-x="1000" 
d="M846 143l44 205h-2l-224 -205h182zM816 0l21 99h-238l9 44l304 279h50l-60 -279h80l-9 -44h-80l-21 -99h-56zM173 -16l578 724h62l-578 -724h-62zM207 286l65 306h-133l8 38h32q55 0 79 13q29 16 50 65h44l-89 -422h-56z" />
    <glyph glyph-name="onehalf" unicode="&#xbd;" horiz-adv-x="1000" 
d="M173 -16l578 724h62l-578 -724h-62zM207 286l65 306h-133l8 38h32q55 0 79 13q29 16 50 65h44l-89 -422h-56zM963 50l-11 -50h-352q16 47 45 77q44 44 142 88q91 40 121 63q37 27 45 66q3 11 3 21q0 63 -92 63q-115 0 -140 -104h-56q32 148 206 148q138 0 138 -101
q0 -13 -3 -27q-17 -84 -133 -135q-111 -48 -148 -68.5t-49 -40.5h284z" />
    <glyph glyph-name="threequarters" unicode="&#xbe;" horiz-adv-x="1000" 
d="M846 143l44 205h-2l-224 -205h182zM816 0l21 99h-238l9 44l304 279h50l-60 -279h80l-9 -44h-80l-21 -99h-56zM275 -16l578 724h62l-578 -724h-62zM289 484l9 44q8 -2 32 -2q106 0 120 67q2 7 2 13q0 58 -88 58q-120 0 -140 -96h-56q14 61 64 99q55 41 141 41q58 0 94 -21
q42 -23 42 -69q0 -44 -30.5 -74.5t-74.5 -35.5v-2q36 -2 59 -23t23 -57q0 -11 -3 -24q-14 -66 -74 -100q-51 -28 -122 -28q-166 0 -166 106q0 18 4 39h56q-3 -14 -3 -26q0 -75 122 -75q50 0 87 25q42 29 42 76q0 39 -44 54q-28 9 -96 11z" />
    <glyph glyph-name="questiondown" unicode="&#xbf;" horiz-adv-x="648" 
d="M530 45h74q-23 -104 -101 -170q-85 -71 -210 -71q-95 0 -154 39q-66 43 -66 122q0 21 5 45q14 64 58 108q33 33 127 91q73 45 93 69q16 21 28 73h68q-17 -77 -42 -106q-22 -25 -132 -96q-59 -38 -80 -58q-36 -34 -46 -81q-3 -14 -3 -27q0 -51 43.5 -81t115.5 -30
q181 0 222 173zM500 536l-23 -110h-86l23 110h86z" />
    <glyph glyph-name="Agrave" unicode="&#xc0;" horiz-adv-x="722" 
d="M578 285l-82 355l-234 -355h316zM642 0l-49 217h-376l-143 -217h-80l476 714h86l172 -714h-86zM500 894l85 -142h-61l-115 142h91z" />
    <glyph glyph-name="Aacute" unicode="&#xc1;" horiz-adv-x="722" 
d="M578 285l-82 355l-234 -355h316zM642 0l-49 217h-376l-143 -217h-80l476 714h86l172 -714h-86zM457 752l145 142h91l-175 -142h-61z" />
    <glyph glyph-name="Acircumflex" unicode="&#xc2;" horiz-adv-x="722" 
d="M578 285l-82 355l-234 -355h316zM642 0l-49 217h-376l-143 -217h-80l476 714h86l172 -714h-86zM338 752l173 142h80l113 -142h-75l-86 101l-130 -101h-75z" />
    <glyph glyph-name="Atilde" unicode="&#xc3;" horiz-adv-x="722" 
d="M578 285l-82 355l-234 -355h316zM642 0l-49 217h-376l-143 -217h-80l476 714h86l172 -714h-86zM689 877v0h44q-18 -44 -42 -70q-36 -38 -84 -38q-36 0 -84.5 26t-73.5 26q-47 0 -65 -52h-44q46 108 126 108q35 0 83.5 -26t74.5 -26q46 0 65 52z" />
    <glyph glyph-name="Adieresis" unicode="&#xc4;" horiz-adv-x="722" 
d="M578 285l-82 355l-234 -355h316zM642 0l-49 217h-376l-143 -217h-80l476 714h86l172 -714h-86zM372 758l24 110h74l-24 -110h-74zM598 758l24 110h74l-24 -110h-74z" />
    <glyph glyph-name="Aring" unicode="&#xc5;" horiz-adv-x="722" 
d="M578 285l-82 355l-234 -355h316zM642 0l-49 217h-376l-143 -217h-80l476 714h86l172 -714h-86zM564 953q38 0 63.5 -25t25.5 -63q0 -51 -42.5 -91.5t-93.5 -40.5q-40 0 -64.5 25t-24.5 62q0 52 42 92.5t94 40.5zM467 828q0 -25 16 -41t42 -16q34 0 61.5 26.5t27.5 60.5
q0 25 -16.5 41t-41.5 16q-35 0 -62 -26.5t-27 -60.5z" />
    <glyph glyph-name="AE" unicode="&#xc6;" horiz-adv-x="1093" 
d="M592 300l73 346h-53l-295 -346h275zM-23 0l610 714h622l-15 -68h-455l-51 -242h433l-15 -68h-433l-57 -268h460l-14 -68h-534l49 232h-317l-197 -232h-86z" />
    <glyph glyph-name="Ccedilla" unicode="&#xc7;" horiz-adv-x="815" 
d="M758 272h74q-39 -124 -149 -204q-115 -85 -264 -86l-35 -37l2 -2q16 5 41 5q73 0 73 -54q0 -45 -52 -70q-42 -20 -92 -20q-48 0 -95 17l19 35q46 -14 80 -14q68 0 76 38q8 36 -44 36q-31 0 -55 -11l-14 17l57 62q-130 9 -202 82t-72 194q0 46 11 97q31 144 138 249
q131 126 322 126q123 0 202 -53q91 -61 91 -177q0 -14 -1 -29h-74q4 96 -66 147q-62 44 -167 44q-138 0 -232 -75q-101 -81 -133 -232q-10 -45 -10 -85q0 -100 56 -157q63 -65 189 -65q238 0 326 222z" />
    <glyph glyph-name="Egrave" unicode="&#xc8;" horiz-adv-x="685" 
d="M78 0l152 714h568l-15 -68h-494l-51 -242h476l-15 -68h-476l-57 -268h502l-14 -68h-576zM482 894l85 -142h-61l-115 142h91z" />
    <glyph glyph-name="Eacute" unicode="&#xc9;" horiz-adv-x="685" 
d="M78 0l152 714h568l-15 -68h-494l-51 -242h476l-15 -68h-476l-57 -268h502l-14 -68h-576zM439 752l145 142h91l-175 -142h-61z" />
    <glyph glyph-name="Ecircumflex" unicode="&#xca;" horiz-adv-x="685" 
d="M78 0l152 714h568l-15 -68h-494l-51 -242h476l-15 -68h-476l-57 -268h502l-14 -68h-576zM320 752l173 142h80l113 -142h-75l-86 101l-130 -101h-75z" />
    <glyph glyph-name="Edieresis" unicode="&#xcb;" horiz-adv-x="685" 
d="M78 0l152 714h568l-15 -68h-494l-51 -242h476l-15 -68h-476l-57 -268h502l-14 -68h-576zM354 758l24 110h74l-24 -110h-74zM580 758l24 110h74l-24 -110h-74z" />
    <glyph glyph-name="Igrave" unicode="&#xcc;" horiz-adv-x="222" 
d="M74 0l152 714h74l-152 -714h-74zM250 894l85 -142h-61l-115 142h91z" />
    <glyph glyph-name="Iacute" unicode="&#xcd;" horiz-adv-x="222" 
d="M74 0l152 714h74l-152 -714h-74zM207 752l145 142h91l-175 -142h-61z" />
    <glyph glyph-name="Icircumflex" unicode="&#xce;" horiz-adv-x="222" 
d="M74 0l152 714h74l-152 -714h-74zM88 752l173 142h80l113 -142h-75l-86 101l-130 -101h-75z" />
    <glyph glyph-name="Idieresis" unicode="&#xcf;" horiz-adv-x="222" 
d="M74 0l152 714h74l-152 -714h-74zM122 758l24 110h74l-24 -110h-74zM348 758l24 110h74l-24 -110h-74z" />
    <glyph glyph-name="Eth" unicode="&#xd0;" horiz-adv-x="778" 
d="M66 0l74 347h-66l12 56h66l66 311h347q253 0 253 -241q0 -53 -13 -116q-33 -157 -132 -254q-104 -103 -249 -103h-358zM277 646l-51 -243h258l-12 -56h-258l-60 -279h270q239 0 301 289q13 60 13 108q0 181 -191 181h-270z" />
    <glyph glyph-name="Ntilde" unicode="&#xd1;" horiz-adv-x="796" 
d="M66 0l152 714h89l369 -610h2l130 610h74l-152 -714h-86l-372 610h-2l-130 -610h-74zM726 877v0h44q-18 -44 -42 -70q-36 -38 -84 -38q-36 0 -84.5 26t-73.5 26q-47 0 -65 -52h-44q46 108 126 108q35 0 83.5 -26t74.5 -26q46 0 65 52z" />
    <glyph glyph-name="Ograve" unicode="&#xd2;" horiz-adv-x="852" 
d="M114 357q38 180 178 282q126 93 290 93q139 0 225 -70q93 -75 93 -211q0 -45 -10 -94q-38 -180 -178 -282q-127 -93 -290 -93q-139 0 -225 70q-94 75 -94 211q0 45 11 94zM194 357q-9 -43 -9 -82q0 -111 75 -171q67 -54 177 -54q129 0 228 73q113 83 145 234q9 43 9 82
q0 111 -75 171q-68 54 -177 54q-129 0 -228 -73q-113 -83 -145 -234zM565 894l85 -142h-61l-115 142h91z" />
    <glyph glyph-name="Oacute" unicode="&#xd3;" horiz-adv-x="852" 
d="M114 357q38 180 178 282q126 93 290 93q139 0 225 -70q93 -75 93 -211q0 -45 -10 -94q-38 -180 -178 -282q-127 -93 -290 -93q-139 0 -225 70q-94 75 -94 211q0 45 11 94zM194 357q-9 -43 -9 -82q0 -111 75 -171q67 -54 177 -54q129 0 228 73q113 83 145 234q9 43 9 82
q0 111 -75 171q-68 54 -177 54q-129 0 -228 -73q-113 -83 -145 -234zM522 752l145 142h91l-175 -142h-61z" />
    <glyph glyph-name="Ocircumflex" unicode="&#xd4;" horiz-adv-x="852" 
d="M114 357q38 180 178 282q126 93 290 93q139 0 225 -70q93 -75 93 -211q0 -45 -10 -94q-38 -180 -178 -282q-127 -93 -290 -93q-139 0 -225 70q-94 75 -94 211q0 45 11 94zM194 357q-9 -43 -9 -82q0 -111 75 -171q67 -54 177 -54q129 0 228 73q113 83 145 234q9 43 9 82
q0 111 -75 171q-68 54 -177 54q-129 0 -228 -73q-113 -83 -145 -234zM403 752l173 142h80l113 -142h-75l-86 101l-130 -101h-75z" />
    <glyph glyph-name="Otilde" unicode="&#xd5;" horiz-adv-x="852" 
d="M114 357q38 180 178 282q126 93 290 93q139 0 225 -70q93 -75 93 -211q0 -45 -10 -94q-38 -180 -178 -282q-127 -93 -290 -93q-139 0 -225 70q-94 75 -94 211q0 45 11 94zM194 357q-9 -43 -9 -82q0 -111 75 -171q67 -54 177 -54q129 0 228 73q113 83 145 234q9 43 9 82
q0 111 -75 171q-68 54 -177 54q-129 0 -228 -73q-113 -83 -145 -234zM754 877v0h44q-18 -44 -42 -70q-36 -38 -84 -38q-36 0 -84.5 26t-73.5 26q-47 0 -65 -52h-44q46 108 126 108q35 0 83.5 -26t74.5 -26q46 0 65 52z" />
    <glyph glyph-name="Odieresis" unicode="&#xd6;" horiz-adv-x="852" 
d="M114 357q38 180 178 282q126 93 290 93q139 0 225 -70q93 -75 93 -211q0 -45 -10 -94q-38 -180 -178 -282q-127 -93 -290 -93q-139 0 -225 70q-94 75 -94 211q0 45 11 94zM194 357q-9 -43 -9 -82q0 -111 75 -171q67 -54 177 -54q129 0 228 73q113 83 145 234q9 43 9 82
q0 111 -75 171q-68 54 -177 54q-129 0 -228 -73q-113 -83 -145 -234zM437 758l24 110h74l-24 -110h-74zM663 758l24 110h74l-24 -110h-74z" />
    <glyph glyph-name="multiply" unicode="&#xd7;" horiz-adv-x="600" 
d="M360 288l232 191l28 -36l-231 -190l150 -190l-43 -36l-151 191l-229 -191l-29 36l231 190l-150 190l44 36z" />
    <glyph glyph-name="Oslash" unicode="&#xd8;" horiz-adv-x="852" 
d="M217 153l547 438q-68 73 -197 73t-228 -73q-113 -83 -145 -234q-9 -43 -9 -82q0 -71 32 -122zM786 561l-547 -438q66 -73 198 -73q129 0 228 73q113 83 145 234q9 42 9 80q0 73 -33 124zM41 12l110 89q-47 69 -47 164q0 43 10 92q38 180 178 282q126 93 290 93
q160 0 247 -89l112 89l22 -30l-110 -88q47 -66 47 -163q0 -44 -10 -94q-38 -180 -178 -282q-127 -93 -290 -93q-159 0 -247 90l-112 -90z" />
    <glyph glyph-name="Ugrave" unicode="&#xd9;" horiz-adv-x="778" 
d="M860 714l-93 -438q-27 -127 -95 -196q-97 -98 -287 -98q-268 0 -268 199q0 41 12 95l93 438h74l-93 -438q-8 -38 -8 -70q0 -156 205 -156q245 0 293 226l93 438h74zM528 894l85 -142h-61l-115 142h91z" />
    <glyph glyph-name="Uacute" unicode="&#xda;" horiz-adv-x="778" 
d="M860 714l-93 -438q-27 -127 -95 -196q-97 -98 -287 -98q-268 0 -268 199q0 41 12 95l93 438h74l-93 -438q-8 -38 -8 -70q0 -156 205 -156q245 0 293 226l93 438h74zM485 752l145 142h91l-175 -142h-61z" />
    <glyph glyph-name="Ucircumflex" unicode="&#xdb;" horiz-adv-x="778" 
d="M860 714l-93 -438q-27 -127 -95 -196q-97 -98 -287 -98q-268 0 -268 199q0 41 12 95l93 438h74l-93 -438q-8 -38 -8 -70q0 -156 205 -156q245 0 293 226l93 438h74zM366 752l173 142h80l113 -142h-75l-86 101l-130 -101h-75z" />
    <glyph glyph-name="Udieresis" unicode="&#xdc;" horiz-adv-x="778" 
d="M860 714l-93 -438q-27 -127 -95 -196q-97 -98 -287 -98q-268 0 -268 199q0 41 12 95l93 438h74l-93 -438q-8 -38 -8 -70q0 -156 205 -156q245 0 293 226l93 438h74zM400 758l24 110h74l-24 -110h-74zM626 758l24 110h74l-24 -110h-74z" />
    <glyph glyph-name="Yacute" unicode="&#xdd;" horiz-adv-x="686" 
d="M306 0l64 300l-233 414h96l189 -340l335 340h96l-409 -414l-64 -300h-74zM439 752l145 142h91l-175 -142h-61z" />
    <glyph glyph-name="Thorn" unicode="&#xde;" horiz-adv-x="704" 
d="M262 516l-59 -278h286q160 0 189 140q6 25 6 45q0 93 -121 93h-301zM78 0l152 714h74l-28 -130h311q78 0 125 -34q53 -39 53 -116q0 -26 -7 -56q-21 -101 -96.5 -154.5t-195.5 -53.5h-278l-36 -170h-74z" />
    <glyph glyph-name="germandbls" unicode="&#xdf;" horiz-adv-x="630" 
d="M342 359l14 65q29 -3 40 -3q167 0 193 118q2 13 2 25q0 94 -144 94q-99 0 -150 -43q-43 -37 -59 -112l-107 -503h-74l108 506q45 214 295 214q112 0 165 -46q42 -36 42 -97q0 -68 -43 -115.5t-111 -62.5l-1 -2q121 -22 121 -141q0 -27 -7 -58q-21 -97 -99.5 -155.5
t-195.5 -58.5q-23 0 -75 8l13 61q37 -7 63 -7q91 0 151 47q56 43 71 115q5 22 5 41q0 110 -180 110h-37z" />
    <glyph glyph-name="agrave" unicode="&#xe0;" horiz-adv-x="611" 
d="M514 201l17 79q-26 -15 -78 -22q-33 -5 -162 -17q-138 -13 -156 -96q-3 -13 -3 -25q0 -80 131 -80q83 0 154 40q81 46 97 121zM198 360h-68q27 87 88 129q70 47 197 47q210 0 210 -115q0 -18 -5 -39l-58 -272q-3 -16 -3 -27q0 -31 32 -31q13 0 39 2l-10 -50
q-42 -8 -64 -8q-65 0 -65 54q0 14 5 38h-2q-93 -104 -265 -104q-70 0 -117 27q-56 33 -56 96q0 15 4 33q20 94 115 132q60 25 178 31q122 7 155.5 18.5t41.5 50.5q3 15 3 27q0 40 -36.5 57.5t-116.5 17.5q-89 0 -137.5 -26.5t-64.5 -87.5zM412 740l85 -142h-61l-115 142h91z
" />
    <glyph glyph-name="aacute" unicode="&#xe1;" horiz-adv-x="611" 
d="M514 201l17 79q-26 -15 -78 -22q-33 -5 -162 -17q-138 -13 -156 -96q-3 -13 -3 -25q0 -80 131 -80q83 0 154 40q81 46 97 121zM198 360h-68q27 87 88 129q70 47 197 47q210 0 210 -115q0 -18 -5 -39l-58 -272q-3 -16 -3 -27q0 -31 32 -31q13 0 39 2l-10 -50
q-42 -8 -64 -8q-65 0 -65 54q0 14 5 38h-2q-93 -104 -265 -104q-70 0 -117 27q-56 33 -56 96q0 15 4 33q20 94 115 132q60 25 178 31q122 7 155.5 18.5t41.5 50.5q3 15 3 27q0 40 -36.5 57.5t-116.5 17.5q-89 0 -137.5 -26.5t-64.5 -87.5zM369 598l145 142h91l-175 -142h-61
z" />
    <glyph glyph-name="acircumflex" unicode="&#xe2;" horiz-adv-x="611" 
d="M514 201l17 79q-26 -15 -78 -22q-33 -5 -162 -17q-138 -13 -156 -96q-3 -13 -3 -25q0 -80 131 -80q83 0 154 40q81 46 97 121zM198 360h-68q27 87 88 129q70 47 197 47q210 0 210 -115q0 -18 -5 -39l-58 -272q-3 -16 -3 -27q0 -31 32 -31q13 0 39 2l-10 -50
q-42 -8 -64 -8q-65 0 -65 54q0 14 5 38h-2q-93 -104 -265 -104q-70 0 -117 27q-56 33 -56 96q0 15 4 33q20 94 115 132q60 25 178 31q122 7 155.5 18.5t41.5 50.5q3 15 3 27q0 40 -36.5 57.5t-116.5 17.5q-89 0 -137.5 -26.5t-64.5 -87.5zM250 598l173 142h80l113 -142h-75
l-86 101l-130 -101h-75z" />
    <glyph glyph-name="atilde" unicode="&#xe3;" horiz-adv-x="611" 
d="M514 201l17 79q-26 -15 -78 -22q-33 -5 -162 -17q-138 -13 -156 -96q-3 -13 -3 -25q0 -80 131 -80q83 0 154 40q81 46 97 121zM198 360h-68q27 87 88 129q70 47 197 47q210 0 210 -115q0 -18 -5 -39l-58 -272q-3 -16 -3 -27q0 -31 32 -31q13 0 39 2l-10 -50
q-42 -8 -64 -8q-65 0 -65 54q0 14 5 38h-2q-93 -104 -265 -104q-70 0 -117 27q-56 33 -56 96q0 15 4 33q20 94 115 132q60 25 178 31q122 7 155.5 18.5t41.5 50.5q3 15 3 27q0 40 -36.5 57.5t-116.5 17.5q-89 0 -137.5 -26.5t-64.5 -87.5zM601 723v0h44q-18 -44 -42 -70
q-36 -38 -84 -38q-36 0 -84.5 26t-73.5 26q-47 0 -65 -52h-44q46 108 126 108q35 0 83.5 -26t74.5 -26q46 0 65 52z" />
    <glyph glyph-name="adieresis" unicode="&#xe4;" horiz-adv-x="611" 
d="M514 201l17 79q-26 -15 -78 -22q-33 -5 -162 -17q-138 -13 -156 -96q-3 -13 -3 -25q0 -80 131 -80q83 0 154 40q81 46 97 121zM198 360h-68q27 87 88 129q70 47 197 47q210 0 210 -115q0 -18 -5 -39l-58 -272q-3 -16 -3 -27q0 -31 32 -31q13 0 39 2l-10 -50
q-42 -8 -64 -8q-65 0 -65 54q0 14 5 38h-2q-93 -104 -265 -104q-70 0 -117 27q-56 33 -56 96q0 15 4 33q20 94 115 132q60 25 178 31q122 7 155.5 18.5t41.5 50.5q3 15 3 27q0 40 -36.5 57.5t-116.5 17.5q-89 0 -137.5 -26.5t-64.5 -87.5zM284 604l24 110h74l-24 -110h-74z
M510 604l24 110h74l-24 -110h-74z" />
    <glyph glyph-name="aring" unicode="&#xe5;" horiz-adv-x="611" 
d="M514 201l17 79q-26 -15 -78 -22q-33 -5 -162 -17q-138 -13 -156 -96q-3 -13 -3 -25q0 -80 131 -80q83 0 154 40q81 46 97 121zM198 360h-68q27 87 88 129q70 47 197 47q210 0 210 -115q0 -18 -5 -39l-58 -272q-3 -16 -3 -27q0 -31 32 -31q13 0 39 2l-10 -50
q-42 -8 -64 -8q-65 0 -65 54q0 14 5 38h-2q-93 -104 -265 -104q-70 0 -117 27q-56 33 -56 96q0 15 4 33q20 94 115 132q60 25 178 31q122 7 155.5 18.5t41.5 50.5q3 15 3 27q0 40 -36.5 57.5t-116.5 17.5q-89 0 -137.5 -26.5t-64.5 -87.5zM476 799q38 0 63.5 -25t25.5 -63
q0 -51 -42.5 -91.5t-93.5 -40.5q-40 0 -64.5 25t-24.5 62q0 52 42 92.5t94 40.5zM379 674q0 -25 16 -41t42 -16q34 0 61.5 26.5t27.5 60.5q0 25 -16.5 41t-41.5 16q-35 0 -62 -26.5t-27 -60.5z" />
    <glyph glyph-name="ae" unicode="&#xe6;" horiz-adv-x="1074" 
d="M1089 242h-493q-5 -25 -5 -48q0 -68 44 -108t125 -40q162 0 225 120h74q-96 -182 -312 -182q-98 0 -156 45q-50 38 -58 95q-87 -140 -298 -140q-70 0 -117 27q-56 33 -56 96q0 15 4 33q20 94 115 132q60 25 178 31q122 7 155.5 18.5t41.5 50.5q3 15 3 27q0 40 -36.5 57.5
t-116.5 17.5q-89 0 -137.5 -26.5t-64.5 -87.5h-68q27 87 88 129q70 47 197 47q108 0 154 -28q39 -24 50 -82q91 110 234 110q102 0 164 -42q77 -53 77 -164q0 -41 -11 -88zM608 298h419q5 90 -49 136q-46 40 -127 40q-91 0 -154 -47t-89 -129zM520 201l17 79
q-26 -15 -78 -22q-33 -5 -162 -17q-138 -13 -156 -96q-3 -13 -3 -25q0 -80 131 -80q83 0 154 40q81 46 97 121z" />
    <glyph glyph-name="ccedilla" unicode="&#xe7;" horiz-adv-x="611" 
d="M552 186h74q-31 -74 -93 -126q-89 -76 -213 -76h-1l-37 -39l2 -2q16 5 41 5q73 0 73 -54q0 -45 -52 -70q-42 -20 -92 -20q-48 0 -95 17l19 35q46 -14 80 -14q68 0 76 38q8 36 -44 36q-31 0 -55 -11l-14 17l60 65q-99 9 -151.5 62.5t-52.5 140.5q0 33 8 70q26 123 115 197
q95 79 237 79q120 0 178 -65q45 -51 41 -121h-74q-5 124 -158 124q-107 0 -179 -62q-66 -57 -86 -152q-6 -30 -6 -58q0 -73 46 -114.5t134 -41.5q156 0 219 140z" />
    <glyph glyph-name="egrave" unicode="&#xe8;" horiz-adv-x="648" 
d="M176 298h428q5 90 -49 136q-46 40 -127 40q-80 0 -145 -40q-76 -47 -107 -136zM563 166h74q-98 -182 -318 -182q-122 0 -182 63q-50 54 -50 143q0 146 100.5 246t248.5 100q102 0 164 -42q77 -53 77 -164q0 -41 -11 -88h-502q-4 -23 -4 -45q0 -67 44.5 -109t127.5 -42
q90 0 146 30q52 29 85 90zM430 740l85 -142h-61l-115 142h91z" />
    <glyph glyph-name="eacute" unicode="&#xe9;" horiz-adv-x="648" 
d="M176 298h428q5 90 -49 136q-46 40 -127 40q-80 0 -145 -40q-76 -47 -107 -136zM563 166h74q-98 -182 -318 -182q-122 0 -182 63q-50 54 -50 143q0 146 100.5 246t248.5 100q102 0 164 -42q77 -53 77 -164q0 -41 -11 -88h-502q-4 -23 -4 -45q0 -67 44.5 -109t127.5 -42
q90 0 146 30q52 29 85 90zM387 598l145 142h91l-175 -142h-61z" />
    <glyph glyph-name="ecircumflex" unicode="&#xea;" horiz-adv-x="648" 
d="M176 298h428q5 90 -49 136q-46 40 -127 40q-80 0 -145 -40q-76 -47 -107 -136zM563 166h74q-98 -182 -318 -182q-122 0 -182 63q-50 54 -50 143q0 146 100.5 246t248.5 100q102 0 164 -42q77 -53 77 -164q0 -41 -11 -88h-502q-4 -23 -4 -45q0 -67 44.5 -109t127.5 -42
q90 0 146 30q52 29 85 90zM268 598l173 142h80l113 -142h-75l-86 101l-130 -101h-75z" />
    <glyph glyph-name="edieresis" unicode="&#xeb;" horiz-adv-x="648" 
d="M176 298h428q5 90 -49 136q-46 40 -127 40q-80 0 -145 -40q-76 -47 -107 -136zM563 166h74q-98 -182 -318 -182q-122 0 -182 63q-50 54 -50 143q0 146 100.5 246t248.5 100q102 0 164 -42q77 -53 77 -164q0 -41 -11 -88h-502q-4 -23 -4 -45q0 -67 44.5 -109t127.5 -42
q90 0 146 30q52 29 85 90zM302 604l24 110h74l-24 -110h-74zM528 604l24 110h74l-24 -110h-74z" />
    <glyph glyph-name="igrave" unicode="&#xec;" horiz-adv-x="184" 
d="M55 0l111 520h74l-111 -520h-74zM198 740l85 -142h-61l-115 142h91z" />
    <glyph glyph-name="iacute" unicode="&#xed;" horiz-adv-x="184" 
d="M55 0l111 520h74l-111 -520h-74zM155 598l145 142h91l-175 -142h-61z" />
    <glyph glyph-name="icircumflex" unicode="&#xee;" horiz-adv-x="184" 
d="M55 0l111 520h74l-111 -520h-74zM36 598l173 142h80l113 -142h-75l-86 101l-130 -101h-75z" />
    <glyph glyph-name="idieresis" unicode="&#xef;" horiz-adv-x="184" 
d="M55 0l111 520h74l-111 -520h-74zM70 604l24 110h74l-24 -110h-74zM296 604l24 110h74l-24 -110h-74z" />
    <glyph glyph-name="eth" unicode="&#xf0;" 
d="M610 260q6 28 6 54q0 74 -47 117t-134 43q-103 0 -174.5 -59t-92.5 -155q-6 -28 -6 -54q0 -74 47 -117t135 -43q103 0 176 60q70 58 90 154zM94 260q25 117 114 192q98 84 240 84q119 0 165 -87h3q-47 138 -152 196l-135 -57l-26 26l124 52q-41 26 -107 48l59 40
q68 -21 123 -57l132 55l24 -27l-124 -52q81 -52 123 -148q37 -83 37 -178q0 -41 -8 -78q-21 -100 -91 -176q-101 -109 -264 -109q-121 0 -186 62q-58 55 -58 149q0 31 7 65z" />
    <glyph glyph-name="ntilde" unicode="&#xf1;" horiz-adv-x="630" 
d="M499 0l71 335q5 22 5 41q0 98 -132 98q-211 0 -252 -192l-60 -282h-74l111 520h74l-22 -102h2q28 46 89 80q71 38 151 38q188 0 188 -145q0 -31 -9 -69l-68 -322h-74zM610 723v0h44q-18 -44 -42 -70q-36 -38 -84 -38q-36 0 -84.5 26t-73.5 26q-47 0 -65 -52h-44
q46 108 126 108q35 0 83.5 -26t74.5 -26q46 0 65 52z" />
    <glyph glyph-name="ograve" unicode="&#xf2;" 
d="M168 260q-6 -28 -6 -54q0 -74 47 -117t135 -43q103 0 176 60q70 58 90 154q6 28 6 54q0 74 -47 117t-134 43q-103 0 -174.5 -59t-92.5 -155zM94 260q25 117 114 192q98 84 240 84q121 0 185 -62q58 -55 58 -149q0 -31 -7 -65q-25 -117 -113 -192q-98 -84 -240 -84
q-121 0 -186 62q-58 55 -58 149q0 31 7 65zM440 740l85 -142h-61l-115 142h91z" />
    <glyph glyph-name="oacute" unicode="&#xf3;" 
d="M168 260q-6 -28 -6 -54q0 -74 47 -117t135 -43q103 0 176 60q70 58 90 154q6 28 6 54q0 74 -47 117t-134 43q-103 0 -174.5 -59t-92.5 -155zM94 260q25 117 114 192q98 84 240 84q121 0 185 -62q58 -55 58 -149q0 -31 -7 -65q-25 -117 -113 -192q-98 -84 -240 -84
q-121 0 -186 62q-58 55 -58 149q0 31 7 65zM397 598l145 142h91l-175 -142h-61z" />
    <glyph glyph-name="ocircumflex" unicode="&#xf4;" 
d="M168 260q-6 -28 -6 -54q0 -74 47 -117t135 -43q103 0 176 60q70 58 90 154q6 28 6 54q0 74 -47 117t-134 43q-103 0 -174.5 -59t-92.5 -155zM94 260q25 117 114 192q98 84 240 84q121 0 185 -62q58 -55 58 -149q0 -31 -7 -65q-25 -117 -113 -192q-98 -84 -240 -84
q-121 0 -186 62q-58 55 -58 149q0 31 7 65zM278 598l173 142h80l113 -142h-75l-86 101l-130 -101h-75z" />
    <glyph glyph-name="otilde" unicode="&#xf5;" 
d="M168 260q-6 -28 -6 -54q0 -74 47 -117t135 -43q103 0 176 60q70 58 90 154q6 28 6 54q0 74 -47 117t-134 43q-103 0 -174.5 -59t-92.5 -155zM94 260q25 117 114 192q98 84 240 84q121 0 185 -62q58 -55 58 -149q0 -31 -7 -65q-25 -117 -113 -192q-98 -84 -240 -84
q-121 0 -186 62q-58 55 -58 149q0 31 7 65zM629 723v0h44q-18 -44 -42 -70q-36 -38 -84 -38q-36 0 -84.5 26t-73.5 26q-47 0 -65 -52h-44q46 108 126 108q35 0 83.5 -26t74.5 -26q46 0 65 52z" />
    <glyph glyph-name="odieresis" unicode="&#xf6;" 
d="M168 260q-6 -28 -6 -54q0 -74 47 -117t135 -43q103 0 176 60q70 58 90 154q6 28 6 54q0 74 -47 117t-134 43q-103 0 -174.5 -59t-92.5 -155zM94 260q25 117 114 192q98 84 240 84q121 0 185 -62q58 -55 58 -149q0 -31 -7 -65q-25 -117 -113 -192q-98 -84 -240 -84
q-121 0 -186 62q-58 55 -58 149q0 31 7 65zM312 604l24 110h74l-24 -110h-74zM538 604l24 110h74l-24 -110h-74z" />
    <glyph glyph-name="divide" unicode="&#xf7;" horiz-adv-x="600" 
d="M95 228l11 50h506l-11 -50h-506zM409 514q20 0 32.5 -12.5t12.5 -31.5q0 -25 -21 -45.5t-47 -20.5q-20 0 -32.5 12.5t-12.5 31.5q0 25 21.5 45.5t46.5 20.5zM322 102q19 0 31.5 -12.5t12.5 -31.5q0 -25 -21 -45.5t-47 -20.5q-19 0 -31.5 12.5t-12.5 31.5q0 25 21 45.5
t47 20.5z" />
    <glyph glyph-name="oslash" unicode="&#xf8;" 
d="M185 121l390 303q-47 50 -140 50q-103 0 -174.5 -59t-92.5 -155q-6 -28 -6 -53q0 -49 23 -86zM41 10l82 63q-36 51 -36 122q0 31 7 65q25 117 114 192q98 84 240 84q126 0 188 -65l83 65l18 -26l-81 -63q35 -50 35 -122q0 -32 -7 -65q-25 -117 -113 -192
q-98 -84 -240 -84q-124 0 -189 65l-82 -65zM594 399l-391 -303q46 -50 141 -50q103 0 176 60q70 58 90 154q6 28 6 53q0 50 -22 86z" />
    <glyph glyph-name="ugrave" unicode="&#xf9;" horiz-adv-x="630" 
d="M499 0l22 102h-2q-29 -46 -90 -80q-70 -38 -150 -38q-188 0 -188 145q0 31 8 69l69 322h74l-72 -335q-4 -22 -4 -41q0 -98 132 -98q211 0 252 192l60 282h74l-111 -520h-74zM421 740l85 -142h-61l-115 142h91z" />
    <glyph glyph-name="uacute" unicode="&#xfa;" horiz-adv-x="630" 
d="M499 0l22 102h-2q-29 -46 -90 -80q-70 -38 -150 -38q-188 0 -188 145q0 31 8 69l69 322h74l-72 -335q-4 -22 -4 -41q0 -98 132 -98q211 0 252 192l60 282h74l-111 -520h-74zM378 598l145 142h91l-175 -142h-61z" />
    <glyph glyph-name="ucircumflex" unicode="&#xfb;" horiz-adv-x="630" 
d="M499 0l22 102h-2q-29 -46 -90 -80q-70 -38 -150 -38q-188 0 -188 145q0 31 8 69l69 322h74l-72 -335q-4 -22 -4 -41q0 -98 132 -98q211 0 252 192l60 282h74l-111 -520h-74zM259 598l173 142h80l113 -142h-75l-86 101l-130 -101h-75z" />
    <glyph glyph-name="udieresis" unicode="&#xfc;" horiz-adv-x="630" 
d="M499 0l22 102h-2q-29 -46 -90 -80q-70 -38 -150 -38q-188 0 -188 145q0 31 8 69l69 322h74l-72 -335q-4 -22 -4 -41q0 -98 132 -98q211 0 252 192l60 282h74l-111 -520h-74zM293 604l24 110h74l-24 -110h-74zM519 604l24 110h74l-24 -110h-74z" />
    <glyph glyph-name="yacute" unicode="&#xfd;" horiz-adv-x="556" 
d="M304 87l289 433h80l-414 -617q-41 -62 -77 -83.5t-97 -21.5q-49 0 -71 2l14 62q31 -2 52 -2q41 0 66 13t51 51l49 72l-141 524h80zM341 598l145 142h91l-175 -142h-61z" />
    <glyph glyph-name="thorn" unicode="&#xfe;" horiz-adv-x="667" 
d="M14 -202l196 922h74l-65 -304h2q89 120 238 120q122 0 181 -63q51 -54 51 -143q0 -146 -100.5 -246t-248.5 -100q-71 0 -123 35q-48 33 -64 85h-2l-65 -306h-74zM182 260q-5 -26 -5 -52q0 -70 41 -114q47 -48 137 -48t160 57q74 60 94 157q6 29 6 56q0 69 -38 110
q-44 48 -131 48q-95 0 -167 -56q-76 -59 -97 -158z" />
    <glyph glyph-name="ydieresis" unicode="&#xff;" horiz-adv-x="556" 
d="M304 87l289 433h80l-414 -617q-41 -62 -77 -83.5t-97 -21.5q-49 0 -71 2l14 62q31 -2 52 -2q41 0 66 13t51 51l49 72l-141 524h80zM256 604l24 110h74l-24 -110h-74zM482 604l24 110h74l-24 -110h-74z" />
    <glyph glyph-name="minus" horiz-adv-x="600" 
d="M95 228l11 50h506l-11 -50h-506z" />
    <glyph glyph-name="fraction" horiz-adv-x="167" 
d="M-163 -16l578 724h62l-578 -724h-62z" />
    <glyph glyph-name="fi" horiz-adv-x="500" 
d="M107 0l99 464h-113l12 56h113l14 69q15 71 59 102q40 29 115 29q37 0 82 -4l-13 -62q-45 4 -68 4q-50 0 -71.5 -16t-31.5 -61l-12 -61h147l-12 -56h-147l-99 -464h-74zM371 0l111 520h74l-111 -520h-74zM501 610l23 110h74l-23 -110h-74z" />
    <glyph glyph-name="fl" horiz-adv-x="500" 
d="M371 0l153 720h74l-153 -720h-74zM107 0l99 464h-113l12 56h113l14 69q15 71 59 102q40 29 115 29q37 0 82 -4l-13 -62q-45 4 -68 4q-50 0 -71.5 -16t-31.5 -61l-12 -61h147l-12 -56h-147l-99 -464h-74z" />
    <glyph glyph-name="breve" horiz-adv-x="184" 
d="M83 732h50q-1 -7 -1 -14q0 -62 99 -62q110 0 132 76h50q-40 -132 -193 -132q-139 0 -139 109q0 11 2 23z" />
    <glyph glyph-name="dotaccent" horiz-adv-x="184" 
d="M183 604l24 110h74l-24 -110h-74z" />
    <glyph glyph-name="ring" horiz-adv-x="184" 
d="M258 779q38 0 63.5 -25t25.5 -63q0 -51 -42.5 -91.5t-93.5 -40.5q-40 0 -64.5 25t-24.5 62q0 52 42 92.5t94 40.5zM161 654q0 -25 16 -41t42 -16q34 0 61.5 26.5t27.5 60.5q0 25 -16.5 41t-41.5 16q-35 0 -62 -26.5t-27 -60.5z" />
    <glyph glyph-name="hungarumlaut" horiz-adv-x="184" 
d="M44 598l145 142h91l-175 -142h-61zM266 598l145 142h91l-175 -142h-61z" />
    <glyph glyph-name="ogonek" horiz-adv-x="184" 
d="M170 -144l5 -35q-53 -17 -106 -17q-91 0 -91 58q0 9 2 20q9 42 56 78q35 26 75 40h54q-44 -19 -78 -48q-45 -39 -45 -76q0 -34 43 -34q34 0 85 14z" />
    <glyph glyph-name="caron" horiz-adv-x="184" 
d="M432 740l-173 -142h-80l-113 142h75l87 -101l129 101h75z" />
    <glyph glyph-name="Lslash" horiz-adv-x="593" 
d="M217 360l241 146l-14 -62l-241 -146l-49 -230h453l-14 -68h-527l53 247l-90 -54l13 62l90 54l86 405h74z" />
    <glyph glyph-name="dotlessi" horiz-adv-x="184" 
d="M55 0l111 520h74l-111 -520h-74z" />
    <glyph glyph-name="lslash" horiz-adv-x="184" 
d="M215 405l64 41l-12 -56l-64 -41l-74 -349h-74l64 299l-64 -42l12 56l63 42l78 365h74z" />
    </font>
</defs>
</svg>
